<svg xmlns="http://www.w3.org/2000/svg" xmlns:xlink="http://www.w3.org/1999/xlink" width="73.006653pt" height="14.515625pt" viewBox="0 0 73.006653 14.515625" version="1.1">
<defs>
<g>
<symbol overflow="visible" id="glyph0-0">
<path style="stroke:none;" d="M 4.5625 -5 L 4.5625 -5.140625 L 1.15625 -5.140625 L 0.78125 -3.75 L 0.96875 -3.703125 C 1.21875 -4.3125 1.4375 -4.421875 2.0625 -4.421875 L 3.703125 -4.421875 L -0.03125 0.046875 L 0.078125 0.15625 C 0.28125 0 0.4375 -0.0625 0.625 -0.0625 C 0.9375 -0.0625 1.3125 0.09375 1.890625 0.4375 C 2.484375 0.8125 2.890625 0.96875 3.234375 0.96875 C 3.90625 0.96875 4.359375 0.546875 4.359375 0.0625 C 4.359375 -0.203125 4.1875 -0.390625 3.9375 -0.390625 C 3.75 -0.390625 3.546875 -0.1875 3.546875 0.03125 C 3.546875 0.125 3.5625 0.21875 3.640625 0.359375 C 3.671875 0.4375 3.703125 0.484375 3.703125 0.546875 C 3.703125 0.640625 3.5625 0.71875 3.375 0.71875 C 3.078125 0.71875 2.84375 0.578125 2.53125 0.125 C 2.046875 -0.59375 1.78125 -0.71875 1.09375 -0.875 Z M 4.5625 -5 "/>
</symbol>
<symbol overflow="visible" id="glyph0-1">
<path style="stroke:none;" d="M 2.921875 -4.265625 C 2.75 -5.078125 2.609375 -5.296875 2.296875 -5.296875 C 2.03125 -5.296875 1.625 -5.203125 0.90625 -4.9375 L 0.765625 -4.890625 L 0.796875 -4.703125 L 1.015625 -4.765625 C 1.25 -4.828125 1.390625 -4.84375 1.484375 -4.84375 C 1.78125 -4.84375 1.875 -4.75 2.046875 -4.03125 L 2.375 -2.546875 L 1.390625 -1.15625 C 1.140625 -0.796875 0.90625 -0.5625 0.78125 -0.5625 C 0.703125 -0.5625 0.59375 -0.59375 0.46875 -0.671875 C 0.3125 -0.75 0.1875 -0.796875 0.078125 -0.796875 C -0.15625 -0.796875 -0.328125 -0.609375 -0.328125 -0.375 C -0.328125 -0.0625 -0.09375 0.125 0.28125 0.125 C 0.640625 0.125 0.890625 0.03125 1.421875 -0.6875 L 2.46875 -2.109375 L 2.8125 -0.6875 C 2.96875 -0.078125 3.140625 0.125 3.53125 0.125 C 3.984375 0.125 4.296875 -0.15625 4.984375 -1.234375 L 4.8125 -1.34375 C 4.71875 -1.21875 4.671875 -1.15625 4.5625 -1.015625 C 4.28125 -0.640625 4.15625 -0.53125 4 -0.53125 C 3.828125 -0.53125 3.71875 -0.6875 3.640625 -1.015625 L 3.25 -2.625 C 3.1875 -2.921875 3.15625 -3.078125 3.15625 -3.171875 C 3.6875 -4.09375 4.109375 -4.625 4.328125 -4.625 C 4.625 -4.625 4.734375 -4.421875 4.953125 -4.421875 C 5.203125 -4.421875 5.359375 -4.59375 5.359375 -4.84375 C 5.359375 -5.109375 5.15625 -5.296875 4.875 -5.296875 C 4.34375 -5.296875 3.90625 -4.859375 3.0625 -3.578125 Z M 2.921875 -4.265625 "/>
</symbol>
<symbol overflow="visible" id="glyph1-0">
<path style="stroke:none;" d="M 2.25 -5.09375 C 2.25 -5.34375 2.046875 -5.5625 1.828125 -5.5625 C 1.59375 -5.5625 1.421875 -5.375 1.421875 -5.125 C 1.421875 -4.84375 1.578125 -4.671875 1.828125 -4.671875 C 2.046875 -4.671875 2.25 -4.859375 2.25 -5.09375 Z M 1.890625 -0.96875 C 1.53125 -0.484375 1.3125 -0.3125 1.171875 -0.3125 C 1.109375 -0.3125 1.0625 -0.34375 1.0625 -0.4375 C 1.0625 -0.546875 1.09375 -0.671875 1.140625 -0.8125 L 1.9375 -3.734375 L 1.90625 -3.75 C 1.046875 -3.59375 0.875 -3.5625 0.546875 -3.546875 L 0.546875 -3.40625 C 1 -3.390625 1.09375 -3.375 1.09375 -3.203125 C 1.09375 -3.140625 1.0625 -2.984375 1.015625 -2.828125 L 0.609375 -1.3125 C 0.484375 -0.84375 0.421875 -0.546875 0.421875 -0.375 C 0.421875 -0.0625 0.546875 0.09375 0.828125 0.09375 C 1.265625 0.09375 1.53125 -0.15625 2 -0.875 Z M 1.890625 -0.96875 "/>
</symbol>
<symbol overflow="visible" id="glyph2-0">
<path style="stroke:none;" d="M 7.640625 -3.84375 L 7.640625 -4.625 L 0.578125 -4.625 L 0.578125 -3.84375 Z M 7.640625 -1.4375 L 7.640625 -2.234375 L 0.578125 -2.234375 L 0.578125 -1.4375 Z M 7.640625 -1.4375 "/>
</symbol>
<symbol overflow="visible" id="glyph2-1">
<path style="stroke:none;" d="M 0.734375 -6.125 C 1.21875 -7.015625 1.78125 -7.390625 2.515625 -7.390625 C 3.3125 -7.390625 3.8125 -6.984375 3.8125 -6.171875 C 3.8125 -5.4375 3.4375 -4.890625 2.84375 -4.5625 C 2.609375 -4.421875 2.296875 -4.28125 1.84375 -4.125 L 1.84375 -3.953125 C 2.515625 -3.953125 2.796875 -3.921875 3.0625 -3.84375 C 3.890625 -3.59375 4.3125 -3.015625 4.3125 -2.09375 C 4.3125 -1.078125 3.640625 -0.265625 2.75 -0.265625 C 2.40625 -0.265625 2.15625 -0.328125 1.71875 -0.640625 C 1.375 -0.875 1.1875 -0.953125 0.984375 -0.953125 C 0.703125 -0.953125 0.484375 -0.765625 0.484375 -0.515625 C 0.484375 -0.078125 0.953125 0.171875 1.84375 0.171875 C 2.90625 0.171875 4.046875 -0.1875 4.625 -0.953125 C 4.96875 -1.40625 5.171875 -1.984375 5.171875 -2.625 C 5.171875 -3.25 4.984375 -3.796875 4.640625 -4.171875 C 4.390625 -4.4375 4.171875 -4.578125 3.640625 -4.8125 C 4.453125 -5.296875 4.765625 -5.890625 4.765625 -6.46875 C 4.765625 -7.453125 4.015625 -8.109375 2.890625 -8.109375 C 1.640625 -8.109375 0.890625 -7.3125 0.546875 -6.171875 Z M 0.734375 -6.125 "/>
</symbol>
<symbol overflow="visible" id="glyph2-2">
<path style="stroke:none;" d="M 7.625 -2.640625 L 7.625 -3.4375 L 4.5 -3.4375 L 4.5 -6.5625 L 3.703125 -6.5625 L 3.703125 -3.4375 L 0.578125 -3.4375 L 0.578125 -2.640625 L 3.703125 -2.640625 L 3.703125 0.484375 L 4.5 0.484375 L 4.5 -2.640625 Z M 7.625 -2.640625 "/>
</symbol>
<symbol overflow="visible" id="glyph2-3">
<path style="stroke:none;" d="M 5.6875 -1.640625 L 5.515625 -1.71875 C 5.125 -1.046875 4.875 -0.90625 4.375 -0.90625 L 1.5625 -0.90625 L 3.546875 -3.03125 C 4.609375 -4.15625 5.078125 -5.046875 5.078125 -6 C 5.078125 -7.1875 4.21875 -8.109375 2.859375 -8.109375 C 1.375 -8.109375 0.609375 -7.125 0.359375 -5.71875 L 0.609375 -5.65625 C 1.09375 -6.84375 1.515625 -7.21875 2.375 -7.21875 C 3.390625 -7.21875 4.046875 -6.625 4.046875 -5.53125 C 4.046875 -4.515625 3.609375 -3.59375 2.484375 -2.40625 L 0.34375 -0.140625 L 0.34375 0 L 5.046875 0 Z M 5.6875 -1.640625 "/>
</symbol>
<symbol overflow="visible" id="glyph3-0">
<path style="stroke:none;" d="M 4.15625 11.578125 C 3.28125 10.878906 2.632812 10.003906 2.21875 8.953125 C 1.8125 7.910156 1.609375 6.789062 1.609375 5.59375 C 1.609375 4.394531 1.8125 3.269531 2.21875 2.21875 C 2.632812 1.164062 3.28125 0.300781 4.15625 -0.375 C 4.15625 -0.394531 4.175781 -0.40625 4.21875 -0.40625 L 4.34375 -0.40625 C 4.363281 -0.40625 4.378906 -0.394531 4.390625 -0.375 C 4.410156 -0.351562 4.421875 -0.332031 4.421875 -0.3125 C 4.421875 -0.28125 4.414062 -0.257812 4.40625 -0.25 C 4.019531 0.125 3.695312 0.539062 3.4375 1 C 3.175781 1.457031 2.96875 1.929688 2.8125 2.421875 C 2.664062 2.921875 2.554688 3.4375 2.484375 3.96875 C 2.421875 4.507812 2.390625 5.054688 2.390625 5.609375 C 2.390625 8.191406 3.0625 10.132812 4.40625 11.4375 C 4.414062 11.445312 4.421875 11.46875 4.421875 11.5 C 4.421875 11.519531 4.410156 11.539062 4.390625 11.5625 C 4.378906 11.582031 4.363281 11.59375 4.34375 11.59375 L 4.21875 11.59375 C 4.175781 11.59375 4.15625 11.585938 4.15625 11.578125 Z M 4.15625 11.578125 "/>
</symbol>
<symbol overflow="visible" id="glyph4-0">
<path style="stroke:none;" d="M 0.53125 11.59375 C 0.46875 11.59375 0.4375 11.5625 0.4375 11.5 C 0.4375 11.46875 0.445312 11.445312 0.46875 11.4375 C 0.976562 10.9375 1.378906 10.367188 1.671875 9.734375 C 1.972656 9.109375 2.1875 8.445312 2.3125 7.75 C 2.4375 7.050781 2.5 6.332031 2.5 5.59375 C 2.5 3 1.820312 1.050781 0.46875 -0.25 C 0.445312 -0.257812 0.4375 -0.28125 0.4375 -0.3125 C 0.4375 -0.375 0.46875 -0.40625 0.53125 -0.40625 L 0.671875 -0.40625 C 0.691406 -0.40625 0.707031 -0.394531 0.71875 -0.375 C 1.601562 0.300781 2.25 1.164062 2.65625 2.21875 C 3.070312 3.269531 3.28125 4.394531 3.28125 5.59375 C 3.28125 6.789062 3.070312 7.910156 2.65625 8.953125 C 2.25 10.003906 1.601562 10.878906 0.71875 11.578125 C 0.707031 11.585938 0.691406 11.59375 0.671875 11.59375 Z M 0.53125 11.59375 "/>
</symbol>
<symbol overflow="visible" id="glyph5-0">
<path style="stroke:none;" d="M 4.03125 -1.171875 L 3.921875 -1.21875 C 3.640625 -0.734375 3.453125 -0.640625 3.09375 -0.640625 L 1.109375 -0.640625 L 2.515625 -2.140625 C 3.265625 -2.953125 3.609375 -3.578125 3.609375 -4.25 C 3.609375 -5.09375 2.984375 -5.75 2.03125 -5.75 C 0.984375 -5.75 0.4375 -5.0625 0.25 -4.0625 L 0.4375 -4.015625 C 0.78125 -4.859375 1.078125 -5.125 1.6875 -5.125 C 2.40625 -5.125 2.875 -4.703125 2.875 -3.921875 C 2.875 -3.203125 2.5625 -2.546875 1.765625 -1.71875 L 0.25 -0.109375 L 0.25 0 L 3.578125 0 Z M 4.03125 -1.171875 "/>
</symbol>
</g>
</defs>
<g id="surface1">
<g style="fill:rgb(0%,0%,0%);fill-opacity:1;">
  <use xlink:href="#glyph0-0" x="0.699219" y="11.554688"/>
</g>
<g style="fill:rgb(0%,0%,0%);fill-opacity:1;">
  <use xlink:href="#glyph1-0" x="5.980469" y="14.078125"/>
</g>
<g style="fill:rgb(0%,0%,0%);fill-opacity:1;">
  <use xlink:href="#glyph2-0" x="12.125" y="11.554688"/>
</g>
<g style="fill:rgb(0%,0%,0%);fill-opacity:1;">
  <use xlink:href="#glyph2-1" x="23.945312" y="11.554688"/>
</g>
<g style="fill:rgb(0%,0%,0%);fill-opacity:1;">
  <use xlink:href="#glyph3-0" x="28.832031" y="2.920068"/>
</g>
<g style="fill:rgb(0%,0%,0%);fill-opacity:1;">
  <use xlink:href="#glyph0-1" x="34.925781" y="11.554688"/>
</g>
<g style="fill:rgb(0%,0%,0%);fill-opacity:1;">
  <use xlink:href="#glyph1-0" x="41.003906" y="14.078125"/>
</g>
<g style="fill:rgb(0%,0%,0%);fill-opacity:1;">
  <use xlink:href="#glyph2-2" x="46.480469" y="11.554688"/>
</g>
<g style="fill:rgb(0%,0%,0%);fill-opacity:1;">
  <use xlink:href="#glyph2-3" x="57.761719" y="11.554688"/>
</g>
<g style="fill:rgb(0%,0%,0%);fill-opacity:1;">
  <use xlink:href="#glyph4-0" x="64.335938" y="2.920068"/>
</g>
<g style="fill:rgb(0%,0%,0%);fill-opacity:1;">
  <use xlink:href="#glyph5-0" x="68.503906" y="5.75"/>
</g>
</g>
</svg>
