<svg xmlns="http://www.w3.org/2000/svg" xmlns:xlink="http://www.w3.org/1999/xlink" width="207.59318pt" height="14.515625pt" viewBox="0 0 207.59318 14.515625" version="1.1">
<defs>
<g>
<symbol overflow="visible" id="glyph0-0">
<path style="stroke:none;" d="M 5.578125 -1.421875 C 4.9375 -0.59375 4.78125 -0.453125 4.59375 -0.453125 C 4.484375 -0.453125 4.40625 -0.546875 4.40625 -0.671875 C 4.40625 -0.796875 4.59375 -1.546875 4.796875 -2.171875 C 5.15625 -3.296875 5.375 -4.1875 5.375 -4.484375 C 5.375 -4.9375 5.140625 -5.296875 4.59375 -5.296875 C 3.859375 -5.296875 2.921875 -4.515625 1.84375 -2.765625 L 3.28125 -8.125 L 3.203125 -8.203125 C 2.515625 -8.046875 2.046875 -7.953125 1.3125 -7.875 L 1.3125 -7.6875 L 1.640625 -7.6875 C 1.859375 -7.6875 2.140625 -7.59375 2.140625 -7.390625 C 2.140625 -7.21875 2.078125 -7.015625 1.984375 -6.640625 L 0.234375 0 L 1.125 0 C 1.609375 -1.84375 1.796875 -2.265625 2.28125 -3 C 2.90625 -3.953125 3.671875 -4.6875 4.109375 -4.6875 C 4.375 -4.6875 4.4375 -4.5625 4.4375 -4.375 C 4.4375 -4.328125 4.40625 -4.171875 4.359375 -3.984375 L 3.703125 -1.5 C 3.546875 -0.90625 3.453125 -0.546875 3.453125 -0.390625 C 3.453125 -0.078125 3.65625 0.109375 3.984375 0.109375 C 4.59375 0.109375 5 -0.21875 5.734375 -1.265625 Z M 5.578125 -1.421875 "/>
</symbol>
<symbol overflow="visible" id="glyph0-1">
<path style="stroke:none;" d="M 10.875 -7.84375 L 8.65625 -7.84375 L 8.65625 -7.640625 C 9.265625 -7.625 9.46875 -7.4375 9.46875 -7.140625 C 9.46875 -6.90625 9.34375 -6.625 9.1875 -6.328125 L 6.9375 -1.9375 L 6.453125 -6.890625 C 6.453125 -6.921875 6.4375 -7 6.4375 -7.0625 C 6.4375 -7.453125 6.640625 -7.578125 7.25 -7.640625 L 7.25 -7.84375 L 4.421875 -7.84375 L 4.421875 -7.640625 C 5.109375 -7.625 5.25 -7.515625 5.3125 -6.90625 L 5.40625 -6.125 L 3.34375 -1.9375 L 2.8125 -6.796875 C 2.8125 -6.875 2.8125 -6.96875 2.8125 -7.03125 C 2.8125 -7.484375 3.0625 -7.578125 3.671875 -7.640625 L 3.671875 -7.84375 L 0.859375 -7.84375 L 0.859375 -7.640625 C 1.234375 -7.59375 1.359375 -7.578125 1.46875 -7.46875 C 1.625 -7.28125 1.6875 -7.078125 1.8125 -5.953125 L 2.546875 0.21875 L 2.765625 0.21875 L 5.4375 -5.21875 L 5.5 -5.21875 L 6.09375 0.21875 L 6.34375 0.21875 L 9.953125 -6.75 C 10.296875 -7.40625 10.421875 -7.5 10.875 -7.640625 Z M 10.875 -7.84375 "/>
</symbol>
<symbol overflow="visible" id="glyph0-2">
<path style="stroke:none;" d="M 2.921875 -4.265625 C 2.75 -5.078125 2.609375 -5.296875 2.296875 -5.296875 C 2.03125 -5.296875 1.625 -5.203125 0.90625 -4.9375 L 0.765625 -4.890625 L 0.796875 -4.703125 L 1.015625 -4.765625 C 1.25 -4.828125 1.390625 -4.84375 1.484375 -4.84375 C 1.78125 -4.84375 1.875 -4.75 2.046875 -4.03125 L 2.375 -2.546875 L 1.390625 -1.15625 C 1.140625 -0.796875 0.90625 -0.5625 0.78125 -0.5625 C 0.703125 -0.5625 0.59375 -0.59375 0.46875 -0.671875 C 0.3125 -0.75 0.1875 -0.796875 0.078125 -0.796875 C -0.15625 -0.796875 -0.328125 -0.609375 -0.328125 -0.375 C -0.328125 -0.0625 -0.09375 0.125 0.28125 0.125 C 0.640625 0.125 0.890625 0.03125 1.421875 -0.6875 L 2.46875 -2.109375 L 2.8125 -0.6875 C 2.96875 -0.078125 3.140625 0.125 3.53125 0.125 C 3.984375 0.125 4.296875 -0.15625 4.984375 -1.234375 L 4.8125 -1.34375 C 4.71875 -1.21875 4.671875 -1.15625 4.5625 -1.015625 C 4.28125 -0.640625 4.15625 -0.53125 4 -0.53125 C 3.828125 -0.53125 3.71875 -0.6875 3.640625 -1.015625 L 3.25 -2.625 C 3.1875 -2.921875 3.15625 -3.078125 3.15625 -3.171875 C 3.6875 -4.09375 4.109375 -4.625 4.328125 -4.625 C 4.625 -4.625 4.734375 -4.421875 4.953125 -4.421875 C 5.203125 -4.421875 5.359375 -4.59375 5.359375 -4.84375 C 5.359375 -5.109375 5.15625 -5.296875 4.875 -5.296875 C 4.34375 -5.296875 3.90625 -4.859375 3.0625 -3.578125 Z M 2.921875 -4.265625 "/>
</symbol>
<symbol overflow="visible" id="glyph0-3">
<path style="stroke:none;" d="M 1.953125 -3.484375 L 2.96875 -7.15625 L 3.21875 -8.140625 L 3.15625 -8.203125 C 2.5625 -8.09375 2.125 -8.015625 1.3125 -7.921875 L 1.3125 -7.71875 C 2.03125 -7.6875 2.09375 -7.6875 2.09375 -7.421875 C 2.09375 -7.3125 2.046875 -7.140625 1.984375 -6.859375 L 0.28125 -0.578125 L 0.28125 -0.5 C 0.28125 -0.140625 1.15625 0.125 1.84375 0.125 C 3.703125 0.125 5.671875 -1.953125 5.671875 -3.859375 C 5.671875 -4.78125 5.09375 -5.296875 4.28125 -5.296875 C 3.4375 -5.296875 2.78125 -4.84375 1.96875 -3.484375 Z M 4.65625 -3.671875 C 4.65625 -2.78125 4.0625 -1.59375 3.34375 -0.859375 C 2.890625 -0.390625 2.375 -0.140625 1.859375 -0.140625 C 1.484375 -0.140625 1.3125 -0.28125 1.3125 -0.546875 C 1.3125 -1.265625 1.640625 -2.4375 2.171875 -3.328125 C 2.6875 -4.203125 3.234375 -4.703125 3.8125 -4.703125 C 4.34375 -4.703125 4.65625 -4.40625 4.65625 -3.671875 Z M 4.65625 -3.671875 "/>
</symbol>
<symbol overflow="visible" id="glyph1-0">
<path style="stroke:none;" d="M 2.515625 -3.640625 L 1.84375 -3.640625 L 2.078125 -4.515625 C 2.09375 -4.53125 2.09375 -4.578125 2.09375 -4.578125 C 2.09375 -4.625 2.0625 -4.65625 2.015625 -4.65625 C 1.96875 -4.65625 1.921875 -4.625 1.890625 -4.578125 C 1.578125 -4.109375 1.03125 -3.703125 0.765625 -3.640625 C 0.546875 -3.59375 0.484375 -3.515625 0.484375 -3.421875 C 0.484375 -3.421875 0.484375 -3.390625 0.484375 -3.375 L 1.125 -3.375 L 0.453125 -0.84375 C 0.390625 -0.578125 0.328125 -0.3125 0.328125 -0.21875 C 0.328125 -0.015625 0.484375 0.09375 0.71875 0.09375 C 1.15625 0.09375 1.421875 -0.15625 1.9375 -0.9375 L 1.828125 -1 C 1.40625 -0.453125 1.265625 -0.328125 1.125 -0.328125 C 1.0625 -0.328125 1 -0.34375 1 -0.453125 C 1 -0.484375 1.015625 -0.546875 1.015625 -0.578125 L 1.765625 -3.375 L 2.484375 -3.375 Z M 2.515625 -3.640625 "/>
</symbol>
<symbol overflow="visible" id="glyph1-1">
<path style="stroke:none;" d="M 2.25 -5.09375 C 2.25 -5.34375 2.046875 -5.5625 1.828125 -5.5625 C 1.59375 -5.5625 1.421875 -5.375 1.421875 -5.125 C 1.421875 -4.84375 1.578125 -4.671875 1.828125 -4.671875 C 2.046875 -4.671875 2.25 -4.859375 2.25 -5.09375 Z M 1.890625 -0.96875 C 1.53125 -0.484375 1.3125 -0.3125 1.171875 -0.3125 C 1.109375 -0.3125 1.0625 -0.34375 1.0625 -0.4375 C 1.0625 -0.546875 1.09375 -0.671875 1.140625 -0.8125 L 1.9375 -3.734375 L 1.90625 -3.75 C 1.046875 -3.59375 0.875 -3.5625 0.546875 -3.546875 L 0.546875 -3.40625 C 1 -3.390625 1.09375 -3.375 1.09375 -3.203125 C 1.09375 -3.140625 1.0625 -2.984375 1.015625 -2.828125 L 0.609375 -1.3125 C 0.484375 -0.84375 0.421875 -0.546875 0.421875 -0.375 C 0.421875 -0.0625 0.546875 0.09375 0.828125 0.09375 C 1.265625 0.09375 1.53125 -0.15625 2 -0.875 Z M 1.890625 -0.96875 "/>
</symbol>
<symbol overflow="visible" id="glyph1-2">
<path style="stroke:none;" d="M 3.953125 -1 C 3.5 -0.421875 3.390625 -0.328125 3.265625 -0.328125 C 3.1875 -0.328125 3.125 -0.390625 3.125 -0.484375 C 3.125 -0.578125 3.265625 -1.09375 3.40625 -1.546875 C 3.65625 -2.34375 3.8125 -2.96875 3.8125 -3.1875 C 3.8125 -3.5 3.65625 -3.75 3.265625 -3.75 C 2.734375 -3.75 2.0625 -3.203125 1.296875 -1.953125 L 2.328125 -5.765625 L 2.28125 -5.8125 C 1.78125 -5.703125 1.453125 -5.640625 0.9375 -5.59375 L 0.9375 -5.453125 L 1.171875 -5.453125 C 1.3125 -5.453125 1.515625 -5.390625 1.515625 -5.25 C 1.515625 -5.125 1.46875 -4.984375 1.40625 -4.71875 L 0.15625 0 L 0.796875 0 C 1.140625 -1.3125 1.28125 -1.609375 1.625 -2.125 C 2.0625 -2.796875 2.609375 -3.328125 2.90625 -3.328125 C 3.109375 -3.328125 3.15625 -3.234375 3.15625 -3.109375 C 3.15625 -3.078125 3.125 -2.96875 3.09375 -2.828125 L 2.625 -1.0625 C 2.515625 -0.640625 2.453125 -0.390625 2.453125 -0.28125 C 2.453125 -0.0625 2.59375 0.078125 2.828125 0.078125 C 3.265625 0.078125 3.546875 -0.15625 4.078125 -0.890625 Z M 3.953125 -1 "/>
</symbol>
<symbol overflow="visible" id="glyph2-0">
<path style="stroke:none;" d="M 7.640625 -3.84375 L 7.640625 -4.625 L 0.578125 -4.625 L 0.578125 -3.84375 Z M 7.640625 -1.4375 L 7.640625 -2.234375 L 0.578125 -2.234375 L 0.578125 -1.4375 Z M 7.640625 -1.4375 "/>
</symbol>
<symbol overflow="visible" id="glyph2-1">
<path style="stroke:none;" d="M 3.1875 -0.921875 C 2.921875 -0.609375 2.734375 -0.5 2.46875 -0.5 C 2.03125 -0.5 1.84375 -0.8125 1.84375 -1.578125 L 1.84375 -5.015625 L 3.0625 -5.015625 L 3.0625 -5.40625 L 1.84375 -5.40625 L 1.84375 -6.796875 C 1.84375 -6.90625 1.828125 -6.953125 1.765625 -6.953125 C 1.6875 -6.828125 1.59375 -6.71875 1.53125 -6.609375 C 1.0625 -5.953125 0.671875 -5.515625 0.359375 -5.328125 C 0.234375 -5.25 0.15625 -5.171875 0.15625 -5.09375 C 0.15625 -5.0625 0.171875 -5.046875 0.203125 -5.015625 L 0.84375 -5.015625 L 0.84375 -1.40625 C 0.84375 -0.390625 1.203125 0.125 1.890625 0.125 C 2.5 0.125 2.953125 -0.171875 3.34375 -0.796875 Z M 3.1875 -0.921875 "/>
</symbol>
<symbol overflow="visible" id="glyph2-2">
<path style="stroke:none;" d="M 5.296875 -0.796875 C 5.09375 -0.625 4.984375 -0.5625 4.78125 -0.5625 C 4.578125 -0.5625 4.421875 -0.796875 4.421875 -1.359375 L 4.421875 -3.640625 C 4.421875 -4.375 4.375 -4.625 4.078125 -4.984375 C 3.796875 -5.328125 3.34375 -5.515625 2.65625 -5.515625 C 2.125 -5.515625 1.625 -5.375 1.28125 -5.15625 C 0.859375 -4.890625 0.671875 -4.515625 0.671875 -4.203125 C 0.671875 -3.875 0.9375 -3.640625 1.1875 -3.640625 C 1.5 -3.640625 1.734375 -3.90625 1.734375 -4.140625 C 1.734375 -4.390625 1.671875 -4.421875 1.671875 -4.640625 C 1.671875 -4.96875 2.03125 -5.234375 2.515625 -5.234375 C 3.046875 -5.234375 3.4375 -4.890625 3.4375 -4.15625 L 3.4375 -3.5 C 2.09375 -3 1.640625 -2.765625 1.28125 -2.53125 C 0.8125 -2.21875 0.4375 -1.75 0.4375 -1.125 C 0.4375 -0.34375 0.953125 0.125 1.703125 0.125 C 2.21875 0.125 2.8125 -0.03125 3.4375 -0.75 L 3.453125 -0.75 C 3.515625 -0.125 3.78125 0.125 4.21875 0.125 C 4.625 0.125 4.9375 0 5.296875 -0.453125 Z M 3.4375 -1.53125 C 3.4375 -1.171875 3.375 -1.015625 3.03125 -0.765625 C 2.8125 -0.640625 2.5625 -0.578125 2.328125 -0.578125 C 1.859375 -0.578125 1.5 -0.859375 1.5 -1.5 C 1.5 -1.875 1.625 -2.15625 1.90625 -2.421875 C 2.203125 -2.703125 2.703125 -2.953125 3.4375 -3.21875 Z M 3.4375 -1.53125 "/>
</symbol>
<symbol overflow="visible" id="glyph2-3">
<path style="stroke:none;" d="M 5.8125 0 L 5.8125 -0.1875 C 5.234375 -0.234375 5.09375 -0.375 5.09375 -1.015625 L 5.09375 -3.671875 C 5.09375 -4.859375 4.578125 -5.515625 3.671875 -5.515625 C 3.125 -5.515625 2.5625 -5.25 1.9375 -4.546875 L 1.9375 -5.484375 L 1.84375 -5.515625 C 1.25 -5.296875 0.859375 -5.171875 0.1875 -4.984375 L 0.1875 -4.78125 C 0.28125 -4.8125 0.40625 -4.828125 0.546875 -4.828125 C 0.875 -4.828125 0.953125 -4.625 0.953125 -4.046875 L 0.953125 -1.125 C 0.953125 -0.421875 0.828125 -0.234375 0.21875 -0.1875 L 0.21875 0 L 2.75 0 L 2.75 -0.1875 C 2.140625 -0.234375 1.96875 -0.390625 1.96875 -0.859375 L 1.96875 -4.171875 C 2.515625 -4.71875 2.8125 -4.859375 3.203125 -4.859375 C 3.796875 -4.859375 4.078125 -4.5 4.078125 -3.640625 L 4.078125 -1.265625 C 4.078125 -0.46875 3.9375 -0.234375 3.34375 -0.1875 L 3.328125 0 Z M 5.8125 0 "/>
</symbol>
<symbol overflow="visible" id="glyph2-4">
<path style="stroke:none;" d="M 5.84375 0 L 5.84375 -0.1875 C 5.203125 -0.296875 5.125 -0.390625 5.125 -1.21875 L 5.125 -3.609375 C 5.125 -4.875 4.625 -5.515625 3.640625 -5.515625 C 2.9375 -5.515625 2.4375 -5.234375 1.890625 -4.515625 L 1.890625 -8.15625 L 1.828125 -8.203125 C 1.40625 -8.046875 1.125 -7.96875 0.4375 -7.765625 L 0.125 -7.671875 L 0.125 -7.46875 C 0.15625 -7.484375 0.21875 -7.484375 0.265625 -7.484375 C 0.78125 -7.484375 0.875 -7.390625 0.875 -6.875 L 0.875 -1.21875 C 0.875 -0.390625 0.796875 -0.28125 0.109375 -0.1875 L 0.109375 0 L 2.703125 0 L 2.703125 -0.1875 C 2 -0.25 1.890625 -0.390625 1.890625 -1.21875 L 1.890625 -4.109375 C 2.390625 -4.671875 2.75 -4.875 3.234375 -4.875 C 3.8125 -4.875 4.109375 -4.4375 4.109375 -3.59375 L 4.109375 -1.21875 C 4.109375 -0.390625 4 -0.25 3.296875 -0.1875 L 3.296875 0 Z M 5.84375 0 "/>
</symbol>
<symbol overflow="visible" id="glyph2-5">
<path style="stroke:none;" d="M 7.625 -2.640625 L 7.625 -3.4375 L 4.5 -3.4375 L 4.5 -6.5625 L 3.703125 -6.5625 L 3.703125 -3.4375 L 0.578125 -3.4375 L 0.578125 -2.640625 L 3.703125 -2.640625 L 3.703125 0.484375 L 4.5 0.484375 L 4.5 -2.640625 Z M 7.625 -2.640625 "/>
</symbol>
<symbol overflow="visible" id="glyph3-0">
<path style="stroke:none;" d="M 4.15625 11.578125 C 3.28125 10.878906 2.632812 10.003906 2.21875 8.953125 C 1.8125 7.910156 1.609375 6.789062 1.609375 5.59375 C 1.609375 4.394531 1.8125 3.269531 2.21875 2.21875 C 2.632812 1.164062 3.28125 0.300781 4.15625 -0.375 C 4.15625 -0.394531 4.175781 -0.40625 4.21875 -0.40625 L 4.34375 -0.40625 C 4.363281 -0.40625 4.378906 -0.394531 4.390625 -0.375 C 4.410156 -0.351562 4.421875 -0.332031 4.421875 -0.3125 C 4.421875 -0.28125 4.414062 -0.257812 4.40625 -0.25 C 4.019531 0.125 3.695312 0.539062 3.4375 1 C 3.175781 1.457031 2.96875 1.929688 2.8125 2.421875 C 2.664062 2.921875 2.554688 3.4375 2.484375 3.96875 C 2.421875 4.507812 2.390625 5.054688 2.390625 5.609375 C 2.390625 8.191406 3.0625 10.132812 4.40625 11.4375 C 4.414062 11.445312 4.421875 11.46875 4.421875 11.5 C 4.421875 11.519531 4.410156 11.539062 4.390625 11.5625 C 4.378906 11.582031 4.363281 11.59375 4.34375 11.59375 L 4.21875 11.59375 C 4.175781 11.59375 4.15625 11.585938 4.15625 11.578125 Z M 4.15625 11.578125 "/>
</symbol>
<symbol overflow="visible" id="glyph4-0">
<path style="stroke:none;" d="M 2.96875 8.203125 C 2.34375 7.710938 1.882812 7.09375 1.59375 6.34375 C 1.300781 5.601562 1.15625 4.8125 1.15625 3.96875 C 1.15625 3.125 1.300781 2.328125 1.59375 1.578125 C 1.882812 0.828125 2.34375 0.210938 2.96875 -0.265625 C 2.96875 -0.273438 2.976562 -0.28125 3 -0.28125 L 3.09375 -0.28125 C 3.101562 -0.28125 3.113281 -0.269531 3.125 -0.25 C 3.144531 -0.238281 3.15625 -0.226562 3.15625 -0.21875 C 3.15625 -0.195312 3.148438 -0.179688 3.140625 -0.171875 C 2.867188 0.0859375 2.640625 0.378906 2.453125 0.703125 C 2.265625 1.035156 2.113281 1.375 2 1.71875 C 1.894531 2.070312 1.816406 2.4375 1.765625 2.8125 C 1.722656 3.195312 1.703125 3.585938 1.703125 3.984375 C 1.703125 5.816406 2.179688 7.191406 3.140625 8.109375 C 3.148438 8.117188 3.15625 8.132812 3.15625 8.15625 C 3.15625 8.164062 3.144531 8.175781 3.125 8.1875 C 3.113281 8.207031 3.101562 8.21875 3.09375 8.21875 L 3 8.21875 C 2.976562 8.21875 2.96875 8.210938 2.96875 8.203125 Z M 2.96875 8.203125 "/>
</symbol>
<symbol overflow="visible" id="glyph4-1">
<path style="stroke:none;" d="M 0.375 8.21875 C 0.332031 8.21875 0.3125 8.195312 0.3125 8.15625 C 0.3125 8.132812 0.316406 8.117188 0.328125 8.109375 C 0.691406 7.753906 0.976562 7.351562 1.1875 6.90625 C 1.394531 6.457031 1.539062 5.988281 1.625 5.5 C 1.707031 5.007812 1.75 4.5 1.75 3.96875 C 1.75 2.125 1.273438 0.742188 0.328125 -0.171875 C 0.316406 -0.179688 0.3125 -0.195312 0.3125 -0.21875 C 0.3125 -0.257812 0.332031 -0.28125 0.375 -0.28125 L 0.46875 -0.28125 C 0.476562 -0.28125 0.488281 -0.273438 0.5 -0.265625 C 1.125 0.210938 1.582031 0.828125 1.875 1.578125 C 2.164062 2.328125 2.3125 3.125 2.3125 3.96875 C 2.3125 4.8125 2.164062 5.601562 1.875 6.34375 C 1.582031 7.09375 1.125 7.710938 0.5 8.203125 C 0.488281 8.210938 0.476562 8.21875 0.46875 8.21875 Z M 0.375 8.21875 "/>
</symbol>
<symbol overflow="visible" id="glyph5-0">
<path style="stroke:none;" d="M 5.28125 -1.875 L 5.28125 -2.4375 L 0.546875 -2.4375 L 0.546875 -1.875 Z M 5.28125 -1.875 "/>
</symbol>
<symbol overflow="visible" id="glyph5-1">
<path style="stroke:none;" d="M 3.359375 0 L 3.359375 -0.125 C 2.71875 -0.125 2.546875 -0.28125 2.546875 -0.640625 L 2.546875 -5.734375 L 2.46875 -5.75 L 0.9375 -4.984375 L 0.9375 -4.859375 L 1.171875 -4.953125 C 1.328125 -5 1.46875 -5.046875 1.5625 -5.046875 C 1.734375 -5.046875 1.8125 -4.921875 1.8125 -4.625 L 1.8125 -0.8125 C 1.8125 -0.34375 1.640625 -0.15625 1 -0.125 L 1 0 Z M 3.359375 0 "/>
</symbol>
<symbol overflow="visible" id="glyph6-0">
<path style="stroke:none;" d="M 0.53125 11.59375 C 0.46875 11.59375 0.4375 11.5625 0.4375 11.5 C 0.4375 11.46875 0.445312 11.445312 0.46875 11.4375 C 0.976562 10.9375 1.378906 10.367188 1.671875 9.734375 C 1.972656 9.109375 2.1875 8.445312 2.3125 7.75 C 2.4375 7.050781 2.5 6.332031 2.5 5.59375 C 2.5 3 1.820312 1.050781 0.46875 -0.25 C 0.445312 -0.257812 0.4375 -0.28125 0.4375 -0.3125 C 0.4375 -0.375 0.46875 -0.40625 0.53125 -0.40625 L 0.671875 -0.40625 C 0.691406 -0.40625 0.707031 -0.394531 0.71875 -0.375 C 1.601562 0.300781 2.25 1.164062 2.65625 2.21875 C 3.070312 3.269531 3.28125 4.394531 3.28125 5.59375 C 3.28125 6.789062 3.070312 7.910156 2.65625 8.953125 C 2.25 10.003906 1.601562 10.878906 0.71875 11.578125 C 0.707031 11.585938 0.691406 11.59375 0.671875 11.59375 Z M 0.53125 11.59375 "/>
</symbol>
</g>
</defs>
<g id="surface1">
<g style="fill:rgb(0%,0%,0%);fill-opacity:1;">
  <use xlink:href="#glyph0-0" x="0.433594" y="9.039062"/>
</g>
<g style="fill:rgb(0%,0%,0%);fill-opacity:1;">
  <use xlink:href="#glyph1-0" x="6.980469" y="10.65625"/>
</g>
<g style="fill:rgb(0%,0%,0%);fill-opacity:1;">
  <use xlink:href="#glyph2-0" x="13.390625" y="9.039062"/>
</g>
<g style="fill:rgb(0%,0%,0%);fill-opacity:1;">
  <use xlink:href="#glyph2-1" x="25.539062" y="9.039062"/>
  <use xlink:href="#glyph2-2" x="29" y="9.039062"/>
  <use xlink:href="#glyph2-3" x="34.328125" y="9.039062"/>
  <use xlink:href="#glyph2-4" x="40.328125" y="9.039062"/>
</g>
<g style="fill:rgb(0%,0%,0%);fill-opacity:1;">
  <use xlink:href="#glyph3-0" x="45.886719" y="0.404443"/>
</g>
<g style="fill:rgb(0%,0%,0%);fill-opacity:1;">
  <use xlink:href="#glyph0-1" x="50.792969" y="9.039062"/>
</g>
<g style="fill:rgb(0%,0%,0%);fill-opacity:1;">
  <use xlink:href="#glyph1-1" x="62.386719" y="11.8125"/>
</g>
<g style="fill:rgb(0%,0%,0%);fill-opacity:1;">
  <use xlink:href="#glyph1-2" x="65.425781" y="11.8125"/>
</g>
<g style="fill:rgb(0%,0%,0%);fill-opacity:1;">
  <use xlink:href="#glyph0-2" x="70.972656" y="9.039062"/>
</g>
<g style="fill:rgb(0%,0%,0%);fill-opacity:1;">
  <use xlink:href="#glyph1-0" x="77.144531" y="10.65625"/>
</g>
<g style="fill:rgb(0%,0%,0%);fill-opacity:1;">
  <use xlink:href="#glyph2-5" x="82.886719" y="9.039062"/>
</g>
<g style="fill:rgb(0%,0%,0%);fill-opacity:1;">
  <use xlink:href="#glyph0-3" x="94.230469" y="9.039062"/>
</g>
<g style="fill:rgb(0%,0%,0%);fill-opacity:1;">
  <use xlink:href="#glyph1-1" x="100.621094" y="11.8125"/>
</g>
<g style="fill:rgb(0%,0%,0%);fill-opacity:1;">
  <use xlink:href="#glyph1-2" x="103.664062" y="11.8125"/>
</g>
<g style="fill:rgb(0%,0%,0%);fill-opacity:1;">
  <use xlink:href="#glyph2-5" x="110.96875" y="9.039062"/>
</g>
<g style="fill:rgb(0%,0%,0%);fill-opacity:1;">
  <use xlink:href="#glyph0-1" x="121.734375" y="9.039062"/>
</g>
<g style="fill:rgb(0%,0%,0%);fill-opacity:1;">
  <use xlink:href="#glyph1-2" x="133.59375" y="11.8125"/>
</g>
<g style="fill:rgb(0%,0%,0%);fill-opacity:1;">
  <use xlink:href="#glyph1-2" x="138.460938" y="11.8125"/>
</g>
<g style="fill:rgb(0%,0%,0%);fill-opacity:1;">
  <use xlink:href="#glyph0-0" x="143.445312" y="9.039062"/>
</g>
<g style="fill:rgb(0%,0%,0%);fill-opacity:1;">
  <use xlink:href="#glyph4-0" x="149.167969" y="6.285645"/>
</g>
<g style="fill:rgb(0%,0%,0%);fill-opacity:1;">
  <use xlink:href="#glyph1-0" x="152.9375" y="12.414062"/>
</g>
<g style="fill:rgb(0%,0%,0%);fill-opacity:1;">
  <use xlink:href="#glyph5-0" x="158.519531" y="12.414062"/>
</g>
<g style="fill:rgb(0%,0%,0%);fill-opacity:1;">
  <use xlink:href="#glyph5-1" x="166.476562" y="12.414062"/>
</g>
<g style="fill:rgb(0%,0%,0%);fill-opacity:1;">
  <use xlink:href="#glyph4-1" x="170.480469" y="6.285645"/>
</g>
<g style="fill:rgb(0%,0%,0%);fill-opacity:1;">
  <use xlink:href="#glyph2-5" x="176.011719" y="9.039062"/>
</g>
<g style="fill:rgb(0%,0%,0%);fill-opacity:1;">
  <use xlink:href="#glyph0-3" x="187.355469" y="9.039062"/>
</g>
<g style="fill:rgb(0%,0%,0%);fill-opacity:1;">
  <use xlink:href="#glyph1-2" x="194.011719" y="11.8125"/>
</g>
<g style="fill:rgb(0%,0%,0%);fill-opacity:1;">
  <use xlink:href="#glyph1-2" x="198.878906" y="11.8125"/>
</g>
<g style="fill:rgb(0%,0%,0%);fill-opacity:1;">
  <use xlink:href="#glyph6-0" x="203.648438" y="0.404443"/>
</g>
</g>
</svg>
