<svg xmlns="http://www.w3.org/2000/svg" xmlns:xlink="http://www.w3.org/1999/xlink" width="387.393086pt" height="31.565883pt" viewBox="0 0 387.393086 31.565883" version="1.1">
<defs>
<g>
<symbol overflow="visible" id="glyph0-0">
<path style="stroke:none;" d="M 3.34375 -8.140625 L 3.28125 -8.203125 C 2.5625 -8.046875 2.125 -7.953125 1.421875 -7.875 L 1.421875 -7.6875 L 1.625 -7.6875 C 2.015625 -7.6875 2.21875 -7.5625 2.21875 -7.421875 C 2.21875 -7.375 2.21875 -7.3125 2.1875 -7.1875 L 0.546875 -0.90625 C 0.5 -0.78125 0.484375 -0.640625 0.484375 -0.546875 C 0.484375 -0.09375 0.703125 0.125 1.078125 0.125 C 1.734375 0.125 2.171875 -0.234375 2.890625 -1.375 L 2.71875 -1.484375 L 2.421875 -1.0625 C 2.078125 -0.578125 1.796875 -0.390625 1.625 -0.390625 C 1.5 -0.390625 1.421875 -0.453125 1.421875 -0.59375 C 1.421875 -0.703125 1.453125 -0.90625 1.515625 -1.109375 Z M 3.34375 -8.140625 "/>
</symbol>
<symbol overflow="visible" id="glyph0-1">
<path style="stroke:none;" d="M 5.609375 -3.609375 C 5.609375 -4.671875 4.890625 -5.296875 3.921875 -5.296875 C 3.4375 -5.296875 2.953125 -5.1875 2.484375 -4.9375 C 1.21875 -4.265625 0.328125 -2.875 0.328125 -1.53125 C 0.328125 -0.484375 0.953125 0.125 2.09375 0.125 C 2.875 0.125 3.640625 -0.171875 4.34375 -0.859375 C 5.140625 -1.640625 5.609375 -2.703125 5.609375 -3.609375 Z M 4.609375 -3.90625 C 4.609375 -3 4.265625 -1.875 3.71875 -1.109375 C 3.25 -0.46875 2.796875 -0.125 2.265625 -0.125 C 1.703125 -0.125 1.328125 -0.484375 1.328125 -1.21875 C 1.328125 -2.15625 1.671875 -3.109375 2.21875 -3.953125 C 2.703125 -4.671875 3.234375 -5.046875 3.75 -5.046875 C 4.265625 -5.046875 4.609375 -4.640625 4.609375 -3.90625 Z M 4.609375 -3.90625 "/>
</symbol>
<symbol overflow="visible" id="glyph0-2">
<path style="stroke:none;" d="M 4.390625 -5.296875 L 4.21875 -5.296875 C 4.125 -5.140625 4.046875 -5.09375 3.859375 -5.09375 C 3.765625 -5.09375 3.65625 -5.09375 3.4375 -5.171875 C 3.125 -5.25 2.96875 -5.296875 2.765625 -5.296875 C 1.875 -5.296875 1.3125 -4.78125 1.3125 -4 C 1.3125 -3.609375 1.546875 -3.078125 2.0625 -2.421875 C 2.53125 -1.84375 2.734375 -1.421875 2.734375 -1.046875 C 2.734375 -0.453125 2.390625 -0.125 1.828125 -0.125 C 1.203125 -0.125 0.796875 -0.609375 0.625 -1.75 L 0.4375 -1.75 L 0.1875 0.15625 L 0.390625 0.15625 C 0.46875 -0.03125 0.59375 -0.09375 0.734375 -0.09375 C 0.859375 -0.09375 1.03125 -0.078125 1.265625 0.015625 C 1.53125 0.125 1.71875 0.125 1.921875 0.125 C 2.921875 0.125 3.640625 -0.484375 3.640625 -1.46875 C 3.640625 -1.9375 3.4375 -2.40625 2.828125 -3.109375 C 2.359375 -3.65625 2.1875 -4.015625 2.1875 -4.328125 C 2.1875 -4.78125 2.46875 -5.015625 2.890625 -5.015625 C 3.484375 -5.015625 3.84375 -4.625 3.953125 -3.625 L 4.15625 -3.625 Z M 4.390625 -5.296875 "/>
</symbol>
<symbol overflow="visible" id="glyph0-3">
<path style="stroke:none;" d="M 2.921875 -4.265625 C 2.75 -5.078125 2.609375 -5.296875 2.296875 -5.296875 C 2.03125 -5.296875 1.625 -5.203125 0.90625 -4.9375 L 0.765625 -4.890625 L 0.796875 -4.703125 L 1.015625 -4.765625 C 1.25 -4.828125 1.390625 -4.84375 1.484375 -4.84375 C 1.78125 -4.84375 1.875 -4.75 2.046875 -4.03125 L 2.375 -2.546875 L 1.390625 -1.15625 C 1.140625 -0.796875 0.90625 -0.5625 0.78125 -0.5625 C 0.703125 -0.5625 0.59375 -0.59375 0.46875 -0.671875 C 0.3125 -0.75 0.1875 -0.796875 0.078125 -0.796875 C -0.15625 -0.796875 -0.328125 -0.609375 -0.328125 -0.375 C -0.328125 -0.0625 -0.09375 0.125 0.28125 0.125 C 0.640625 0.125 0.890625 0.03125 1.421875 -0.6875 L 2.46875 -2.109375 L 2.8125 -0.6875 C 2.96875 -0.078125 3.140625 0.125 3.53125 0.125 C 3.984375 0.125 4.296875 -0.15625 4.984375 -1.234375 L 4.8125 -1.34375 C 4.71875 -1.21875 4.671875 -1.15625 4.5625 -1.015625 C 4.28125 -0.640625 4.15625 -0.53125 4 -0.53125 C 3.828125 -0.53125 3.71875 -0.6875 3.640625 -1.015625 L 3.25 -2.625 C 3.1875 -2.921875 3.15625 -3.078125 3.15625 -3.171875 C 3.6875 -4.09375 4.109375 -4.625 4.328125 -4.625 C 4.625 -4.625 4.734375 -4.421875 4.953125 -4.421875 C 5.203125 -4.421875 5.359375 -4.59375 5.359375 -4.84375 C 5.359375 -5.109375 5.15625 -5.296875 4.875 -5.296875 C 4.34375 -5.296875 3.90625 -4.859375 3.0625 -3.578125 Z M 2.921875 -4.265625 "/>
</symbol>
<symbol overflow="visible" id="glyph0-4">
<path style="stroke:none;" d="M 4.203125 -1.28125 C 3.546875 -0.59375 3.09375 -0.296875 2.453125 -0.296875 C 1.78125 -0.296875 1.390625 -0.796875 1.390625 -1.671875 C 1.390625 -2.734375 1.8125 -3.75 2.484375 -4.46875 C 2.828125 -4.828125 3.3125 -5.046875 3.796875 -5.046875 C 4.0625 -5.046875 4.234375 -4.9375 4.234375 -4.796875 C 4.234375 -4.578125 4.0625 -4.4375 4.0625 -4.21875 C 4.0625 -3.984375 4.1875 -3.75 4.53125 -3.75 C 4.84375 -3.75 5.09375 -4 5.09375 -4.3125 C 5.09375 -4.890625 4.578125 -5.296875 3.84375 -5.296875 C 3.109375 -5.296875 2.421875 -5.03125 1.84375 -4.5625 C 0.984375 -3.875 0.359375 -2.828125 0.359375 -1.71875 C 0.359375 -0.484375 1.015625 0.125 2.125 0.125 C 3.03125 0.125 3.65625 -0.234375 4.390625 -1.15625 Z M 4.203125 -1.28125 "/>
</symbol>
<symbol overflow="visible" id="glyph0-5">
<path style="stroke:none;" d="M 5.5625 -1.328125 L 5.234375 -0.984375 C 4.875 -0.59375 4.71875 -0.484375 4.609375 -0.484375 C 4.515625 -0.484375 4.4375 -0.5625 4.4375 -0.640625 C 4.4375 -0.890625 4.9375 -2.953125 5.515625 -5 C 5.546875 -5.125 5.5625 -5.140625 5.578125 -5.25 L 5.5 -5.296875 L 4.765625 -5.203125 L 4.734375 -5.171875 L 4.59375 -4.59375 C 4.5 -5.046875 4.15625 -5.296875 3.640625 -5.296875 C 2.046875 -5.296875 0.203125 -3.125 0.203125 -1.265625 C 0.203125 -0.34375 0.734375 0.125 1.40625 0.125 C 2.25 0.125 2.9375 -0.390625 3.84375 -1.75 C 3.59375 -0.765625 3.5625 -0.671875 3.5625 -0.375 C 3.5625 -0.03125 3.703125 0.125 4.046875 0.125 C 4.53125 0.125 4.8125 -0.109375 5.71875 -1.203125 Z M 4.375 -4.328125 C 4.375 -3.484375 4.015625 -2.453125 3.453125 -1.625 C 3.09375 -1.109375 2.53125 -0.453125 1.9375 -0.453125 C 1.5 -0.453125 1.21875 -0.6875 1.21875 -1.34375 C 1.21875 -2.09375 1.625 -3.171875 2.140625 -3.921875 C 2.640625 -4.65625 3.171875 -5.03125 3.703125 -5.03125 C 4.125 -5.03125 4.375 -4.75 4.375 -4.328125 Z M 4.375 -4.328125 "/>
</symbol>
<symbol overflow="visible" id="glyph0-6">
<path style="stroke:none;" d="M 5.65625 -4.390625 L 5.65625 -4.859375 L 4.9375 -4.859375 C 4.890625 -4.859375 4.84375 -4.890625 4.734375 -4.953125 C 4.421875 -5.1875 4.015625 -5.296875 3.5625 -5.296875 C 2.359375 -5.296875 1.15625 -4.46875 1.15625 -3.234375 C 1.15625 -2.609375 1.421875 -2.1875 2.09375 -1.9375 C 1.453125 -1.640625 1.171875 -1.28125 1.171875 -0.9375 C 1.171875 -0.78125 1.28125 -0.59375 1.5 -0.46875 C 0.328125 0.234375 0.09375 0.5625 0.09375 1.171875 C 0.09375 2.046875 0.875 2.46875 2.09375 2.46875 C 3.703125 2.46875 4.625 1.703125 4.625 0.65625 C 4.625 -0.0625 4.0625 -0.59375 2.921875 -0.859375 C 2.390625 -1 2.0625 -1.15625 2.0625 -1.375 C 2.0625 -1.625 2.296875 -1.859375 2.5 -1.859375 C 2.515625 -1.859375 2.546875 -1.859375 2.578125 -1.84375 C 2.6875 -1.828125 2.8125 -1.8125 2.953125 -1.8125 C 4.0625 -1.8125 5.171875 -2.765625 5.171875 -3.78125 C 5.171875 -3.984375 5.171875 -4.171875 5.0625 -4.390625 Z M 4.21875 -4.171875 C 4.21875 -3.671875 4.0625 -3.1875 3.828125 -2.765625 C 3.546875 -2.28125 3.21875 -2.0625 2.8125 -2.0625 C 2.359375 -2.0625 2.09375 -2.40625 2.09375 -2.96875 C 2.09375 -4.15625 2.8125 -5.03125 3.546875 -5.03125 C 4 -5.03125 4.21875 -4.8125 4.21875 -4.171875 Z M 3.90625 1.078125 C 3.90625 1.6875 3.25 2.203125 2.28125 2.203125 C 1.3125 2.203125 0.75 1.828125 0.75 0.984375 C 0.75 0.703125 0.8125 0.515625 1 0.28125 C 1.15625 0.078125 1.671875 -0.34375 1.78125 -0.34375 C 1.90625 -0.28125 2.03125 -0.25 2.1875 -0.203125 C 3.46875 0.1875 3.90625 0.53125 3.90625 1.078125 Z M 3.90625 1.078125 "/>
</symbol>
<symbol overflow="visible" id="glyph0-7">
<path style="stroke:none;" d="M 4.296875 -1.3125 C 3.4375 -0.59375 3.0625 -0.40625 2.53125 -0.40625 C 1.859375 -0.40625 1.421875 -0.84375 1.421875 -1.5 C 1.421875 -1.6875 1.421875 -1.984375 1.53125 -2.234375 C 3.6875 -2.515625 4.9375 -3.4375 4.9375 -4.46875 C 4.9375 -4.984375 4.59375 -5.296875 3.953125 -5.296875 C 2.15625 -5.296875 0.375 -3.375 0.375 -1.515625 C 0.375 -0.515625 1.015625 0.125 1.984375 0.125 C 2.984375 0.125 3.75 -0.328125 4.4375 -1.15625 Z M 1.828125 -3.03125 C 2.234375 -4.09375 3.046875 -5.015625 3.734375 -5.015625 C 4.0625 -5.015625 4.15625 -4.84375 4.15625 -4.546875 C 4.15625 -4.171875 3.921875 -3.75 3.546875 -3.390625 C 3.109375 -2.96875 2.65625 -2.75 1.625 -2.5 Z M 1.828125 -3.03125 "/>
</symbol>
<symbol overflow="visible" id="glyph0-8">
<path style="stroke:none;" d="M 2.578125 -5.140625 C 2.59375 -5.1875 2.609375 -5.25 2.609375 -5.25 C 2.609375 -5.265625 2.578125 -5.296875 2.546875 -5.296875 L 0.671875 -5.03125 L 0.703125 -4.84375 L 0.953125 -4.84375 C 1.15625 -4.84375 1.484375 -4.8125 1.484375 -4.53125 C 1.484375 -4.46875 1.421875 -4.15625 1.296875 -3.671875 L -0.078125 1.515625 C -0.234375 2.078125 -0.390625 2.25 -0.90625 2.265625 L -0.90625 2.453125 L 1.53125 2.453125 L 1.53125 2.265625 C 0.96875 2.265625 0.796875 2.1875 0.796875 1.921875 C 0.796875 1.75 1.0625 0.765625 1.265625 -0.078125 C 1.578125 0.078125 1.828125 0.125 2.09375 0.125 C 3.859375 0.125 5.65625 -1.8125 5.65625 -3.796875 C 5.65625 -4.734375 5.171875 -5.296875 4.28125 -5.296875 C 3.5625 -5.296875 2.875 -4.90625 2.234375 -3.9375 Z M 4.578125 -3.75 C 4.578125 -2.921875 4.328125 -2.046875 3.75 -1.234375 C 3.234375 -0.484375 2.65625 -0.09375 2.015625 -0.09375 C 1.6875 -0.09375 1.4375 -0.28125 1.4375 -0.546875 C 1.4375 -0.953125 1.875 -2.515625 2.21875 -3.40625 C 2.5 -4.125 3.203125 -4.78125 3.84375 -4.78125 C 4.375 -4.78125 4.578125 -4.4375 4.578125 -3.75 Z M 4.578125 -3.75 "/>
</symbol>
<symbol overflow="visible" id="glyph0-9">
<path style="stroke:none;" d="M 3.34375 -7.171875 C 3.34375 -7.515625 3.0625 -7.828125 2.734375 -7.828125 C 2.40625 -7.828125 2.09375 -7.5625 2.09375 -7.203125 C 2.09375 -6.828125 2.390625 -6.578125 2.75 -6.578125 C 3.0625 -6.578125 3.34375 -6.859375 3.34375 -7.171875 Z M 2.953125 -5.25 L 2.90625 -5.296875 C 1.890625 -5.109375 1.265625 -5.015625 0.875 -4.984375 L 0.875 -4.796875 L 1.1875 -4.796875 C 1.625 -4.796875 1.765625 -4.6875 1.765625 -4.421875 C 1.765625 -4.3125 1.71875 -4.0625 1.578125 -3.46875 L 0.703125 0.03125 C 0.296875 1.6875 0.03125 2.21875 -0.453125 2.21875 C -0.59375 2.21875 -0.671875 2.15625 -0.671875 2.078125 C -0.671875 1.890625 -0.53125 1.9375 -0.53125 1.671875 C -0.53125 1.421875 -0.671875 1.21875 -1 1.21875 C -1.265625 1.21875 -1.484375 1.46875 -1.484375 1.75 C -1.484375 2.1875 -1.09375 2.484375 -0.546875 2.484375 C 0.5 2.484375 1.21875 1.609375 1.703125 -0.34375 Z M 2.953125 -5.25 "/>
</symbol>
<symbol overflow="visible" id="glyph1-0">
<path style="stroke:none;" d="M 4.15625 11.578125 C 3.28125 10.878906 2.632812 10.003906 2.21875 8.953125 C 1.8125 7.910156 1.609375 6.789062 1.609375 5.59375 C 1.609375 4.394531 1.8125 3.269531 2.21875 2.21875 C 2.632812 1.164062 3.28125 0.300781 4.15625 -0.375 C 4.15625 -0.394531 4.175781 -0.40625 4.21875 -0.40625 L 4.34375 -0.40625 C 4.363281 -0.40625 4.378906 -0.394531 4.390625 -0.375 C 4.410156 -0.351562 4.421875 -0.332031 4.421875 -0.3125 C 4.421875 -0.28125 4.414062 -0.257812 4.40625 -0.25 C 4.019531 0.125 3.695312 0.539062 3.4375 1 C 3.175781 1.457031 2.96875 1.929688 2.8125 2.421875 C 2.664062 2.921875 2.554688 3.4375 2.484375 3.96875 C 2.421875 4.507812 2.390625 5.054688 2.390625 5.609375 C 2.390625 8.191406 3.0625 10.132812 4.40625 11.4375 C 4.414062 11.445312 4.421875 11.46875 4.421875 11.5 C 4.421875 11.519531 4.410156 11.539062 4.390625 11.5625 C 4.378906 11.582031 4.363281 11.59375 4.34375 11.59375 L 4.21875 11.59375 C 4.175781 11.59375 4.15625 11.585938 4.15625 11.578125 Z M 4.15625 11.578125 "/>
</symbol>
<symbol overflow="visible" id="glyph2-0">
<path style="stroke:none;" d="M 1 1.6875 C 1.828125 1.296875 2.34375 0.546875 2.34375 -0.1875 C 2.34375 -0.796875 1.921875 -1.21875 1.375 -1.21875 C 0.953125 -1.21875 0.65625 -0.953125 0.65625 -0.546875 C 0.65625 -0.125 0.90625 0.078125 1.359375 0.078125 C 1.484375 0.078125 1.609375 0.03125 1.703125 0.03125 C 1.796875 0.03125 1.875 0.09375 1.875 0.1875 C 1.875 0.578125 1.53125 1.015625 0.875 1.46875 Z M 1 1.6875 "/>
</symbol>
<symbol overflow="visible" id="glyph2-1">
<path style="stroke:none;" d="M 7.640625 -3.84375 L 7.640625 -4.625 L 0.578125 -4.625 L 0.578125 -3.84375 Z M 7.640625 -1.4375 L 7.640625 -2.234375 L 0.578125 -2.234375 L 0.578125 -1.4375 Z M 7.640625 -1.4375 "/>
</symbol>
<symbol overflow="visible" id="glyph2-2">
<path style="stroke:none;" d="M 7.453125 -2.640625 L 7.453125 -3.4375 L 0.765625 -3.4375 L 0.765625 -2.640625 Z M 7.453125 -2.640625 "/>
</symbol>
<symbol overflow="visible" id="glyph2-3">
<path style="stroke:none;" d="M 3.078125 0 L 3.078125 -0.1875 C 2.3125 -0.234375 2.1875 -0.390625 2.1875 -1.046875 L 2.1875 -8.140625 L 2.125 -8.203125 C 1.5 -7.984375 1.0625 -7.875 0.234375 -7.671875 L 0.234375 -7.46875 C 0.421875 -7.5 0.578125 -7.5 0.671875 -7.5 C 1.0625 -7.5 1.171875 -7.3125 1.171875 -6.734375 L 1.171875 -1.109375 C 1.171875 -0.4375 1.015625 -0.234375 0.25 -0.1875 L 0.25 0 Z M 3.078125 0 "/>
</symbol>
<symbol overflow="visible" id="glyph2-4">
<path style="stroke:none;" d="M 5.640625 -2.765625 C 5.640625 -4.421875 4.515625 -5.515625 3.046875 -5.515625 C 1.421875 -5.515625 0.34375 -4.40625 0.34375 -2.734375 C 0.34375 -1.0625 1.484375 0.125 2.9375 0.125 C 4.5625 0.125 5.640625 -1.109375 5.640625 -2.765625 Z M 4.5625 -2.453125 C 4.5625 -1.0625 4.03125 -0.21875 3.140625 -0.21875 C 2.71875 -0.21875 2.328125 -0.4375 2.0625 -0.8125 C 1.625 -1.46875 1.421875 -2.328125 1.421875 -3.28125 C 1.421875 -4.46875 1.984375 -5.1875 2.8125 -5.1875 C 3.34375 -5.1875 3.671875 -4.9375 3.953125 -4.578125 C 4.34375 -4.09375 4.5625 -3.265625 4.5625 -2.453125 Z M 4.5625 -2.453125 "/>
</symbol>
<symbol overflow="visible" id="glyph2-5">
<path style="stroke:none;" d="M 5.640625 -4.65625 L 5.640625 -5.125 L 4.71875 -5.125 C 4.46875 -5.125 4.296875 -5.15625 4.0625 -5.25 L 3.796875 -5.34375 C 3.46875 -5.453125 3.140625 -5.515625 2.828125 -5.515625 C 1.71875 -5.515625 0.828125 -4.65625 0.828125 -3.5625 C 0.828125 -2.8125 1.140625 -2.359375 1.9375 -1.953125 C 1.78125 -1.78125 1.609375 -1.625 1.421875 -1.46875 C 1.03125 -1.125 0.875 -0.890625 0.875 -0.640625 C 0.875 -0.390625 1.015625 -0.25 1.515625 -0.015625 C 0.640625 0.609375 0.34375 1.015625 0.34375 1.453125 C 0.34375 2.09375 1.265625 2.609375 2.40625 2.609375 C 3.28125 2.609375 4.1875 2.328125 4.8125 1.84375 C 5.296875 1.46875 5.53125 1.0625 5.53125 0.59375 C 5.53125 -0.15625 4.96875 -0.65625 4.078125 -0.703125 L 2.53125 -0.765625 C 1.890625 -0.796875 1.59375 -0.90625 1.59375 -1.09375 C 1.59375 -1.328125 1.984375 -1.75 2.3125 -1.84375 L 2.546875 -1.828125 C 2.765625 -1.796875 2.921875 -1.78125 3 -1.78125 C 3.421875 -1.78125 3.859375 -1.96875 4.25 -2.25 C 4.6875 -2.578125 4.875 -3.03125 4.875 -3.640625 C 4.875 -4 4.8125 -4.265625 4.640625 -4.65625 Z M 1.828125 -4.0625 C 1.828125 -4.765625 2.15625 -5.1875 2.71875 -5.1875 C 3.078125 -5.1875 3.390625 -4.984375 3.59375 -4.625 C 3.8125 -4.203125 3.953125 -3.65625 3.953125 -3.171875 C 3.953125 -2.515625 3.59375 -2.09375 3.0625 -2.09375 C 2.3125 -2.09375 1.828125 -2.875 1.828125 -4.015625 Z M 5.203125 0.765625 C 5.203125 1.46875 4.28125 1.9375 2.921875 1.9375 C 1.859375 1.9375 1.171875 1.578125 1.171875 1.0625 C 1.171875 0.78125 1.28125 0.59375 1.765625 0.03125 C 2.171875 0.109375 3.125 0.1875 3.703125 0.1875 C 4.796875 0.1875 5.203125 0.328125 5.203125 0.765625 Z M 5.203125 0.765625 "/>
</symbol>
<symbol overflow="visible" id="glyph2-6">
<path style="stroke:none;" d="M 7.625 -2.640625 L 7.625 -3.4375 L 4.5 -3.4375 L 4.5 -6.5625 L 3.703125 -6.5625 L 3.703125 -3.4375 L 0.578125 -3.4375 L 0.578125 -2.640625 L 3.703125 -2.640625 L 3.703125 0.484375 L 4.5 0.484375 L 4.5 -2.640625 Z M 7.625 -2.640625 "/>
</symbol>
<symbol overflow="visible" id="glyph3-0">
<path style="stroke:none;" d="M 0.53125 11.59375 C 0.46875 11.59375 0.4375 11.5625 0.4375 11.5 C 0.4375 11.46875 0.445312 11.445312 0.46875 11.4375 C 0.976562 10.9375 1.378906 10.367188 1.671875 9.734375 C 1.972656 9.109375 2.1875 8.445312 2.3125 7.75 C 2.4375 7.050781 2.5 6.332031 2.5 5.59375 C 2.5 3 1.820312 1.050781 0.46875 -0.25 C 0.445312 -0.257812 0.4375 -0.28125 0.4375 -0.3125 C 0.4375 -0.375 0.46875 -0.40625 0.53125 -0.40625 L 0.671875 -0.40625 C 0.691406 -0.40625 0.707031 -0.394531 0.71875 -0.375 C 1.601562 0.300781 2.25 1.164062 2.65625 2.21875 C 3.070312 3.269531 3.28125 4.394531 3.28125 5.59375 C 3.28125 6.789062 3.070312 7.910156 2.65625 8.953125 C 2.25 10.003906 1.601562 10.878906 0.71875 11.578125 C 0.707031 11.585938 0.691406 11.59375 0.671875 11.59375 Z M 0.53125 11.59375 "/>
</symbol>
<symbol overflow="visible" id="glyph4-0">
<path style="stroke:none;" d="M 3.046875 -0.921875 C 2.4375 -0.421875 2.171875 -0.296875 1.796875 -0.296875 C 1.3125 -0.296875 1 -0.59375 1 -1.0625 C 1 -1.1875 1 -1.40625 1.09375 -1.578125 C 2.609375 -1.78125 3.515625 -2.4375 3.515625 -3.171875 C 3.515625 -3.53125 3.265625 -3.75 2.8125 -3.75 C 1.53125 -3.75 0.265625 -2.390625 0.265625 -1.078125 C 0.265625 -0.359375 0.71875 0.09375 1.40625 0.09375 C 2.125 0.09375 2.671875 -0.234375 3.15625 -0.828125 Z M 1.296875 -2.140625 C 1.578125 -2.90625 2.15625 -3.5625 2.640625 -3.5625 C 2.890625 -3.5625 2.953125 -3.4375 2.953125 -3.234375 C 2.953125 -2.96875 2.78125 -2.65625 2.515625 -2.40625 C 2.203125 -2.109375 1.875 -1.953125 1.15625 -1.765625 Z M 1.296875 -2.140625 "/>
</symbol>
<symbol overflow="visible" id="glyph4-1">
<path style="stroke:none;" d="M 2.0625 -3.015625 C 1.953125 -3.609375 1.84375 -3.75 1.640625 -3.75 C 1.4375 -3.75 1.15625 -3.703125 0.640625 -3.515625 L 0.546875 -3.46875 L 0.578125 -3.34375 L 0.71875 -3.375 C 0.890625 -3.421875 0.984375 -3.4375 1.0625 -3.4375 C 1.265625 -3.4375 1.328125 -3.375 1.453125 -2.859375 L 1.6875 -1.8125 L 0.984375 -0.8125 C 0.8125 -0.5625 0.640625 -0.40625 0.546875 -0.40625 C 0.5 -0.40625 0.421875 -0.421875 0.328125 -0.484375 C 0.21875 -0.53125 0.140625 -0.578125 0.0625 -0.578125 C -0.109375 -0.578125 -0.234375 -0.4375 -0.234375 -0.265625 C -0.234375 -0.046875 -0.0625 0.09375 0.203125 0.09375 C 0.453125 0.09375 0.625 0.015625 1 -0.484375 L 1.75 -1.5 L 2 -0.484375 C 2.109375 -0.0625 2.234375 0.09375 2.5 0.09375 C 2.828125 0.09375 3.046875 -0.109375 3.546875 -0.875 L 3.421875 -0.953125 C 3.34375 -0.875 3.3125 -0.8125 3.234375 -0.71875 C 3.046875 -0.453125 2.953125 -0.375 2.828125 -0.375 C 2.71875 -0.375 2.640625 -0.484375 2.578125 -0.71875 L 2.3125 -1.859375 C 2.25 -2.0625 2.234375 -2.1875 2.234375 -2.25 C 2.609375 -2.90625 2.921875 -3.28125 3.078125 -3.28125 C 3.28125 -3.28125 3.359375 -3.140625 3.515625 -3.140625 C 3.6875 -3.140625 3.8125 -3.265625 3.8125 -3.4375 C 3.8125 -3.625 3.65625 -3.75 3.453125 -3.75 C 3.078125 -3.75 2.765625 -3.453125 2.171875 -2.53125 Z M 2.0625 -3.015625 "/>
</symbol>
<symbol overflow="visible" id="glyph4-2">
<path style="stroke:none;" d="M 1.828125 -3.640625 C 1.84375 -3.671875 1.84375 -3.71875 1.84375 -3.71875 C 1.84375 -3.734375 1.828125 -3.75 1.8125 -3.75 L 0.484375 -3.5625 L 0.5 -3.4375 L 0.6875 -3.4375 C 0.8125 -3.4375 1.0625 -3.421875 1.0625 -3.203125 C 1.0625 -3.171875 1.015625 -2.953125 0.921875 -2.609375 L -0.0625 1.078125 C -0.15625 1.46875 -0.265625 1.59375 -0.640625 1.609375 L -0.640625 1.75 L 1.09375 1.75 L 1.09375 1.609375 C 0.6875 1.609375 0.5625 1.546875 0.5625 1.359375 C 0.5625 1.25 0.765625 0.546875 0.90625 -0.046875 C 1.109375 0.0625 1.296875 0.09375 1.484375 0.09375 C 2.734375 0.09375 4.015625 -1.28125 4.015625 -2.6875 C 4.015625 -3.359375 3.671875 -3.75 3.046875 -3.75 C 2.53125 -3.75 2.046875 -3.484375 1.578125 -2.796875 Z M 3.25 -2.671875 C 3.25 -2.0625 3.078125 -1.453125 2.671875 -0.875 C 2.296875 -0.34375 1.875 -0.0625 1.4375 -0.0625 C 1.1875 -0.0625 1.015625 -0.203125 1.015625 -0.390625 C 1.015625 -0.6875 1.328125 -1.78125 1.578125 -2.421875 C 1.765625 -2.921875 2.28125 -3.390625 2.71875 -3.390625 C 3.109375 -3.390625 3.25 -3.15625 3.25 -2.671875 Z M 3.25 -2.671875 "/>
</symbol>
<symbol overflow="visible" id="glyph4-3">
<path style="stroke:none;" d="M 2.984375 -0.90625 C 2.515625 -0.421875 2.203125 -0.21875 1.75 -0.21875 C 1.265625 -0.21875 0.984375 -0.578125 0.984375 -1.1875 C 0.984375 -1.9375 1.28125 -2.671875 1.765625 -3.171875 C 2.015625 -3.421875 2.34375 -3.578125 2.6875 -3.578125 C 2.890625 -3.578125 3 -3.515625 3 -3.40625 C 3 -3.25 2.875 -3.15625 2.875 -3 C 2.875 -2.828125 2.96875 -2.65625 3.203125 -2.65625 C 3.4375 -2.65625 3.625 -2.828125 3.625 -3.0625 C 3.625 -3.46875 3.25 -3.75 2.71875 -3.75 C 2.203125 -3.75 1.71875 -3.5625 1.296875 -3.234375 C 0.703125 -2.75 0.25 -2.015625 0.25 -1.21875 C 0.25 -0.34375 0.71875 0.09375 1.5 0.09375 C 2.140625 0.09375 2.59375 -0.171875 3.109375 -0.828125 Z M 2.984375 -0.90625 "/>
</symbol>
<symbol overflow="visible" id="glyph4-4">
<path style="stroke:none;" d="M 2.375 -5.78125 L 2.328125 -5.8125 C 1.828125 -5.703125 1.5 -5.640625 1 -5.59375 L 1 -5.453125 L 1.15625 -5.453125 C 1.4375 -5.453125 1.578125 -5.359375 1.578125 -5.265625 C 1.578125 -5.234375 1.578125 -5.1875 1.546875 -5.09375 L 0.390625 -0.640625 C 0.359375 -0.546875 0.34375 -0.453125 0.34375 -0.390625 C 0.34375 -0.0625 0.5 0.09375 0.765625 0.09375 C 1.21875 0.09375 1.546875 -0.15625 2.046875 -0.96875 L 1.9375 -1.0625 L 1.71875 -0.765625 C 1.46875 -0.40625 1.28125 -0.265625 1.15625 -0.265625 C 1.0625 -0.265625 1 -0.328125 1 -0.421875 C 1 -0.5 1.03125 -0.640625 1.078125 -0.796875 Z M 2.375 -5.78125 "/>
</symbol>
<symbol overflow="visible" id="glyph4-5">
<path style="stroke:none;" d="M 3.9375 -0.9375 L 3.71875 -0.703125 C 3.453125 -0.421875 3.34375 -0.34375 3.265625 -0.34375 C 3.203125 -0.34375 3.15625 -0.40625 3.15625 -0.453125 C 3.15625 -0.625 3.515625 -2.09375 3.90625 -3.546875 C 3.9375 -3.640625 3.9375 -3.65625 3.953125 -3.734375 L 3.90625 -3.75 L 3.375 -3.703125 L 3.359375 -3.671875 L 3.265625 -3.265625 C 3.1875 -3.578125 2.953125 -3.75 2.578125 -3.75 C 1.453125 -3.75 0.140625 -2.21875 0.140625 -0.890625 C 0.140625 -0.25 0.515625 0.09375 1 0.09375 C 1.59375 0.09375 2.09375 -0.28125 2.71875 -1.25 C 2.546875 -0.546875 2.53125 -0.484375 2.53125 -0.265625 C 2.53125 -0.015625 2.625 0.078125 2.875 0.078125 C 3.203125 0.078125 3.421875 -0.078125 4.046875 -0.84375 Z M 3.109375 -3.078125 C 3.109375 -2.46875 2.859375 -1.734375 2.453125 -1.15625 C 2.203125 -0.796875 1.796875 -0.328125 1.375 -0.328125 C 1.0625 -0.328125 0.859375 -0.484375 0.859375 -0.953125 C 0.859375 -1.484375 1.15625 -2.25 1.515625 -2.78125 C 1.875 -3.296875 2.25 -3.5625 2.625 -3.5625 C 2.921875 -3.5625 3.109375 -3.375 3.109375 -3.078125 Z M 3.109375 -3.078125 "/>
</symbol>
<symbol overflow="visible" id="glyph4-6">
<path style="stroke:none;" d="M 3.109375 -3.765625 L 3 -3.765625 C 2.921875 -3.640625 2.875 -3.609375 2.734375 -3.609375 C 2.671875 -3.609375 2.59375 -3.625 2.4375 -3.671875 C 2.21875 -3.734375 2.109375 -3.75 1.953125 -3.75 C 1.328125 -3.75 0.921875 -3.390625 0.921875 -2.828125 C 0.921875 -2.5625 1.09375 -2.1875 1.46875 -1.71875 C 1.796875 -1.296875 1.9375 -1.015625 1.9375 -0.734375 C 1.9375 -0.328125 1.6875 -0.078125 1.296875 -0.078125 C 0.84375 -0.078125 0.5625 -0.4375 0.4375 -1.25 L 0.3125 -1.25 L 0.140625 0.109375 L 0.265625 0.109375 C 0.328125 -0.03125 0.421875 -0.0625 0.515625 -0.0625 C 0.609375 -0.0625 0.734375 -0.0625 0.890625 0.015625 C 1.09375 0.078125 1.21875 0.09375 1.359375 0.09375 C 2.0625 0.09375 2.59375 -0.34375 2.59375 -1.046875 C 2.59375 -1.375 2.4375 -1.71875 2.015625 -2.203125 C 1.671875 -2.59375 1.546875 -2.84375 1.546875 -3.078125 C 1.546875 -3.390625 1.75 -3.5625 2.046875 -3.5625 C 2.46875 -3.5625 2.71875 -3.28125 2.8125 -2.578125 L 2.953125 -2.578125 Z M 3.109375 -3.765625 "/>
</symbol>
<symbol overflow="visible" id="glyph4-7">
<path style="stroke:none;" d="M 2.375 -5.09375 C 2.375 -5.328125 2.171875 -5.546875 1.9375 -5.546875 C 1.703125 -5.546875 1.484375 -5.359375 1.484375 -5.109375 C 1.484375 -4.84375 1.6875 -4.671875 1.953125 -4.671875 C 2.171875 -4.671875 2.375 -4.859375 2.375 -5.09375 Z M 2.09375 -3.734375 L 2.0625 -3.75 C 1.34375 -3.625 0.890625 -3.5625 0.625 -3.546875 L 0.625 -3.40625 L 0.84375 -3.40625 C 1.15625 -3.40625 1.25 -3.328125 1.25 -3.140625 C 1.25 -3.0625 1.21875 -2.875 1.109375 -2.46875 L 0.5 0.03125 C 0.21875 1.203125 0.015625 1.578125 -0.328125 1.578125 C -0.421875 1.578125 -0.484375 1.53125 -0.484375 1.46875 C -0.484375 1.34375 -0.375 1.375 -0.375 1.1875 C -0.375 1 -0.484375 0.875 -0.703125 0.875 C -0.90625 0.875 -1.0625 1.03125 -1.0625 1.25 C -1.0625 1.546875 -0.78125 1.765625 -0.390625 1.765625 C 0.359375 1.765625 0.859375 1.140625 1.203125 -0.234375 Z M 2.09375 -3.734375 "/>
</symbol>
<symbol overflow="visible" id="glyph5-0">
<path style="stroke:none;" d="M 2.96875 8.203125 C 2.34375 7.710938 1.882812 7.09375 1.59375 6.34375 C 1.300781 5.601562 1.15625 4.8125 1.15625 3.96875 C 1.15625 3.125 1.300781 2.328125 1.59375 1.578125 C 1.882812 0.828125 2.34375 0.210938 2.96875 -0.265625 C 2.96875 -0.273438 2.976562 -0.28125 3 -0.28125 L 3.09375 -0.28125 C 3.101562 -0.28125 3.113281 -0.269531 3.125 -0.25 C 3.144531 -0.238281 3.15625 -0.226562 3.15625 -0.21875 C 3.15625 -0.195312 3.148438 -0.179688 3.140625 -0.171875 C 2.867188 0.0859375 2.640625 0.378906 2.453125 0.703125 C 2.265625 1.035156 2.113281 1.375 2 1.71875 C 1.894531 2.070312 1.816406 2.4375 1.765625 2.8125 C 1.722656 3.195312 1.703125 3.585938 1.703125 3.984375 C 1.703125 5.816406 2.179688 7.191406 3.140625 8.109375 C 3.148438 8.117188 3.15625 8.132812 3.15625 8.15625 C 3.15625 8.164062 3.144531 8.175781 3.125 8.1875 C 3.113281 8.207031 3.101562 8.21875 3.09375 8.21875 L 3 8.21875 C 2.976562 8.21875 2.96875 8.210938 2.96875 8.203125 Z M 2.96875 8.203125 "/>
</symbol>
<symbol overflow="visible" id="glyph5-1">
<path style="stroke:none;" d="M 0.375 8.21875 C 0.332031 8.21875 0.3125 8.195312 0.3125 8.15625 C 0.3125 8.132812 0.316406 8.117188 0.328125 8.109375 C 0.691406 7.753906 0.976562 7.351562 1.1875 6.90625 C 1.394531 6.457031 1.539062 5.988281 1.625 5.5 C 1.707031 5.007812 1.75 4.5 1.75 3.96875 C 1.75 2.125 1.273438 0.742188 0.328125 -0.171875 C 0.316406 -0.179688 0.3125 -0.195312 0.3125 -0.21875 C 0.3125 -0.257812 0.332031 -0.28125 0.375 -0.28125 L 0.46875 -0.28125 C 0.476562 -0.28125 0.488281 -0.273438 0.5 -0.265625 C 1.125 0.210938 1.582031 0.828125 1.875 1.578125 C 2.164062 2.328125 2.3125 3.125 2.3125 3.96875 C 2.3125 4.8125 2.164062 5.601562 1.875 6.34375 C 1.582031 7.09375 1.125 7.710938 0.5 8.203125 C 0.488281 8.210938 0.476562 8.21875 0.46875 8.21875 Z M 0.375 8.21875 "/>
</symbol>
<symbol overflow="visible" id="glyph6-0">
<path style="stroke:none;" d="M 1.234375 8.21875 L 1.234375 -0.28125 L 2.390625 -0.28125 L 2.390625 0 L 1.46875 0 L 1.46875 7.9375 L 2.390625 7.9375 L 2.390625 8.21875 Z M 1.234375 8.21875 "/>
</symbol>
<symbol overflow="visible" id="glyph6-1">
<path style="stroke:none;" d="M 0.140625 8.21875 L 0.140625 7.9375 L 1.0625 7.9375 L 1.0625 0 L 0.140625 0 L 0.140625 -0.28125 L 1.296875 -0.28125 L 1.296875 8.21875 Z M 0.140625 8.21875 "/>
</symbol>
<symbol overflow="visible" id="glyph7-0">
<path style="stroke:none;" d="M 0.390625 8.515625 C 0.359375 8.515625 0.34375 8.488281 0.34375 8.4375 C 0.34375 8.425781 0.347656 8.414062 0.359375 8.40625 L 3.546875 4.65625 L 0.359375 0.265625 C 0.347656 0.253906 0.34375 0.242188 0.34375 0.234375 L 0.34375 0.046875 C 0.34375 0.0351562 0.347656 0.0234375 0.359375 0.015625 C 0.367188 0.00390625 0.378906 0 0.390625 0 L 7.640625 0 L 8.359375 1.703125 L 8.1875 1.703125 C 8 1.273438 7.6875 0.957031 7.25 0.75 C 6.8125 0.539062 6.351562 0.410156 5.875 0.359375 C 5.40625 0.316406 4.851562 0.296875 4.21875 0.296875 L 1.4375 0.296875 L 4.28125 4.21875 C 4.289062 4.226562 4.296875 4.238281 4.296875 4.25 C 4.296875 4.269531 4.289062 4.285156 4.28125 4.296875 L 1.15625 7.96875 L 4.28125 7.96875 C 4.894531 7.96875 5.441406 7.941406 5.921875 7.890625 C 6.398438 7.847656 6.851562 7.722656 7.28125 7.515625 C 7.71875 7.304688 8.019531 6.984375 8.1875 6.546875 L 8.359375 6.546875 L 7.640625 8.515625 Z M 0.390625 8.515625 "/>
</symbol>
<symbol overflow="visible" id="glyph8-0">
<path style="stroke:none;" d="M 2.234375 -4.78125 C 2.234375 -5.015625 2.046875 -5.21875 1.828125 -5.21875 C 1.59375 -5.21875 1.40625 -5.046875 1.40625 -4.796875 C 1.40625 -4.546875 1.59375 -4.390625 1.828125 -4.390625 C 2.046875 -4.390625 2.234375 -4.5625 2.234375 -4.78125 Z M 1.96875 -3.5 L 1.9375 -3.53125 C 1.265625 -3.40625 0.84375 -3.34375 0.578125 -3.328125 L 0.578125 -3.203125 L 0.796875 -3.203125 C 1.078125 -3.203125 1.171875 -3.125 1.171875 -2.953125 C 1.171875 -2.875 1.140625 -2.703125 1.046875 -2.3125 L 0.46875 0.03125 C 0.203125 1.125 0.015625 1.484375 -0.296875 1.484375 C -0.40625 1.484375 -0.453125 1.4375 -0.453125 1.390625 C -0.453125 1.265625 -0.359375 1.28125 -0.359375 1.109375 C -0.359375 0.9375 -0.453125 0.8125 -0.65625 0.8125 C -0.84375 0.8125 -0.984375 0.96875 -0.984375 1.171875 C -0.984375 1.453125 -0.734375 1.65625 -0.359375 1.65625 C 0.34375 1.65625 0.8125 1.078125 1.140625 -0.21875 Z M 1.96875 -3.5 "/>
</symbol>
<symbol overflow="visible" id="glyph9-0">
<path style="stroke:none;" d="M 1.71875 11.59375 L 1.71875 -0.40625 L 3.359375 -0.40625 L 3.359375 0 L 2.0625 0 L 2.0625 11.1875 L 3.359375 11.1875 L 3.359375 11.59375 Z M 1.71875 11.59375 "/>
</symbol>
<symbol overflow="visible" id="glyph10-0">
<path style="stroke:none;" d="M 0.1875 11.59375 L 0.1875 11.1875 L 1.484375 11.1875 L 1.484375 0 L 0.1875 0 L 0.1875 -0.40625 L 1.828125 -0.40625 L 1.828125 11.59375 Z M 0.1875 11.59375 "/>
</symbol>
<symbol overflow="visible" id="glyph11-0">
<path style="stroke:none;" d="M 0.5625 12.015625 C 0.507812 12.015625 0.484375 11.984375 0.484375 11.921875 C 0.484375 11.890625 0.488281 11.867188 0.5 11.859375 L 4.984375 6.578125 L 0.5 0.375 C 0.488281 0.363281 0.484375 0.347656 0.484375 0.328125 L 0.484375 0.078125 C 0.484375 0.0546875 0.488281 0.0351562 0.5 0.015625 C 0.519531 0.00390625 0.539062 0 0.5625 0 L 10.765625 0 L 11.796875 2.40625 L 11.546875 2.40625 C 11.273438 1.800781 10.832031 1.347656 10.21875 1.046875 C 9.601562 0.753906 8.957031 0.570312 8.28125 0.5 C 7.613281 0.4375 6.835938 0.40625 5.953125 0.40625 L 2.015625 0.40625 L 6.03125 5.9375 C 6.039062 5.96875 6.046875 5.988281 6.046875 6 C 6.046875 6.019531 6.039062 6.039062 6.03125 6.0625 L 1.625 11.25 L 6.03125 11.25 C 6.90625 11.25 7.675781 11.210938 8.34375 11.140625 C 9.019531 11.078125 9.660156 10.894531 10.265625 10.59375 C 10.878906 10.300781 11.304688 9.851562 11.546875 9.25 L 11.796875 9.25 L 10.765625 12.015625 Z M 0.5625 12.015625 "/>
</symbol>
</g>
</defs>
<g id="surface1">
<g style="fill:rgb(0%,0%,0%);fill-opacity:1;">
  <use xlink:href="#glyph0-0" x="5.980469" y="17.488281"/>
</g>
<g style="fill:rgb(0%,0%,0%);fill-opacity:1;">
  <use xlink:href="#glyph0-1" x="10.332031" y="17.488281"/>
</g>
<g style="fill:rgb(0%,0%,0%);fill-opacity:1;">
  <use xlink:href="#glyph0-2" x="17.085938" y="17.488281"/>
</g>
<g style="fill:rgb(0%,0%,0%);fill-opacity:1;">
  <use xlink:href="#glyph0-2" x="22.621094" y="17.488281"/>
</g>
<g style="fill:rgb(0%,0%,0%);fill-opacity:1;">
  <use xlink:href="#glyph1-0" x="26.726562" y="8.853662"/>
</g>
<g style="fill:rgb(0%,0%,0%);fill-opacity:1;">
  <use xlink:href="#glyph0-3" x="32.820312" y="17.488281"/>
</g>
<g style="fill:rgb(0%,0%,0%);fill-opacity:1;">
  <use xlink:href="#glyph2-0" x="38.855469" y="17.488281"/>
</g>
<g style="fill:rgb(0%,0%,0%);fill-opacity:1;">
  <use xlink:href="#glyph0-4" x="46.175781" y="17.488281"/>
</g>
<g style="fill:rgb(0%,0%,0%);fill-opacity:1;">
  <use xlink:href="#glyph0-0" x="52.117188" y="17.488281"/>
</g>
<g style="fill:rgb(0%,0%,0%);fill-opacity:1;">
  <use xlink:href="#glyph0-5" x="56.589844" y="17.488281"/>
</g>
<g style="fill:rgb(0%,0%,0%);fill-opacity:1;">
  <use xlink:href="#glyph0-2" x="63.457031" y="17.488281"/>
</g>
<g style="fill:rgb(0%,0%,0%);fill-opacity:1;">
  <use xlink:href="#glyph0-2" x="68.992188" y="17.488281"/>
</g>
<g style="fill:rgb(0%,0%,0%);fill-opacity:1;">
  <use xlink:href="#glyph3-0" x="74.265625" y="8.853662"/>
</g>
<g style="fill:rgb(0%,0%,0%);fill-opacity:1;">
  <use xlink:href="#glyph2-1" x="82.632812" y="17.488281"/>
</g>
<g style="fill:rgb(0%,0%,0%);fill-opacity:1;">
  <use xlink:href="#glyph2-2" x="96.839844" y="17.488281"/>
</g>
<g style="fill:rgb(0%,0%,0%);fill-opacity:1;">
  <use xlink:href="#glyph2-3" x="108.058594" y="17.488281"/>
  <use xlink:href="#glyph2-4" x="111.394531" y="17.488281"/>
  <use xlink:href="#glyph2-5" x="117.394531" y="17.488281"/>
</g>
<path style="fill:none;stroke-width:1.2;stroke-linecap:butt;stroke-linejoin:miter;stroke:rgb(0%,0%,0%);stroke-opacity:1;stroke-miterlimit:10;" d="M 125.035156 -4.372785 L 177.355469 -4.372785 " transform="matrix(1,0,0,1,0,18.822004)"/>
<g style="fill:rgb(0%,0%,0%);fill-opacity:1;">
  <use xlink:href="#glyph4-0" x="126.453125" y="10.414062"/>
</g>
<g style="fill:rgb(0%,0%,0%);fill-opacity:1;">
  <use xlink:href="#glyph4-1" x="131.148438" y="10.414062"/>
</g>
<g style="fill:rgb(0%,0%,0%);fill-opacity:1;">
  <use xlink:href="#glyph4-2" x="136.550781" y="10.414062"/>
</g>
<g style="fill:rgb(0%,0%,0%);fill-opacity:1;">
  <use xlink:href="#glyph5-0" x="140.359375" y="4.285645"/>
</g>
<g style="fill:rgb(0%,0%,0%);fill-opacity:1;">
  <use xlink:href="#glyph4-1" x="144.691406" y="10.414062"/>
</g>
<g style="fill:rgb(0%,0%,0%);fill-opacity:1;">
  <use xlink:href="#glyph6-0" x="148.226562" y="4.285645"/>
</g>
<g style="fill:rgb(0%,0%,0%);fill-opacity:1;">
  <use xlink:href="#glyph4-3" x="151.320312" y="10.414062"/>
</g>
<g style="fill:rgb(0%,0%,0%);fill-opacity:1;">
  <use xlink:href="#glyph4-4" x="155.546875" y="10.414062"/>
</g>
<g style="fill:rgb(0%,0%,0%);fill-opacity:1;">
  <use xlink:href="#glyph4-5" x="158.730469" y="10.414062"/>
</g>
<g style="fill:rgb(0%,0%,0%);fill-opacity:1;">
  <use xlink:href="#glyph4-6" x="163.582031" y="10.414062"/>
</g>
<g style="fill:rgb(0%,0%,0%);fill-opacity:1;">
  <use xlink:href="#glyph4-6" x="167.5" y="10.414062"/>
</g>
<g style="fill:rgb(0%,0%,0%);fill-opacity:1;">
  <use xlink:href="#glyph6-1" x="171.421875" y="4.285645"/>
</g>
<g style="fill:rgb(0%,0%,0%);fill-opacity:1;">
  <use xlink:href="#glyph5-1" x="173.367188" y="4.285645"/>
</g>
<g style="fill:rgb(0%,0%,0%);fill-opacity:1;">
  <use xlink:href="#glyph7-0" x="125.167969" y="16.381557"/>
</g>
<g style="fill:rgb(0%,0%,0%);fill-opacity:1;">
  <use xlink:href="#glyph8-0" x="135.429688" y="25.90918"/>
</g>
<g style="fill:rgb(0%,0%,0%);fill-opacity:1;">
  <use xlink:href="#glyph4-0" x="140.316406" y="22.796875"/>
</g>
<g style="fill:rgb(0%,0%,0%);fill-opacity:1;">
  <use xlink:href="#glyph4-1" x="145.011719" y="22.796875"/>
</g>
<g style="fill:rgb(0%,0%,0%);fill-opacity:1;">
  <use xlink:href="#glyph4-2" x="150.410156" y="22.796875"/>
</g>
<g style="fill:rgb(0%,0%,0%);fill-opacity:1;">
  <use xlink:href="#glyph5-0" x="154.222656" y="16.668457"/>
</g>
<g style="fill:rgb(0%,0%,0%);fill-opacity:1;">
  <use xlink:href="#glyph4-1" x="158.554688" y="22.796875"/>
</g>
<g style="fill:rgb(0%,0%,0%);fill-opacity:1;">
  <use xlink:href="#glyph6-0" x="162.085938" y="16.668457"/>
</g>
<g style="fill:rgb(0%,0%,0%);fill-opacity:1;">
  <use xlink:href="#glyph4-7" x="166.496094" y="22.796875"/>
</g>
<g style="fill:rgb(0%,0%,0%);fill-opacity:1;">
  <use xlink:href="#glyph6-1" x="169.683594" y="16.668457"/>
</g>
<g style="fill:rgb(0%,0%,0%);fill-opacity:1;">
  <use xlink:href="#glyph5-1" x="171.628906" y="16.668457"/>
</g>
<g style="fill:rgb(0%,0%,0%);fill-opacity:1;">
  <use xlink:href="#glyph5-1" x="174.578125" y="16.668457"/>
</g>
<g style="fill:rgb(0%,0%,0%);fill-opacity:1;">
  <use xlink:href="#glyph2-1" x="208.441406" y="17.488281"/>
</g>
<g style="fill:rgb(0%,0%,0%);fill-opacity:1;">
  <use xlink:href="#glyph2-2" x="222.652344" y="17.488281"/>
</g>
<g style="fill:rgb(0%,0%,0%);fill-opacity:1;">
  <use xlink:href="#glyph0-3" x="234.433594" y="17.488281"/>
</g>
<g style="fill:rgb(0%,0%,0%);fill-opacity:1;">
  <use xlink:href="#glyph9-0" x="239.40625" y="8.853662"/>
</g>
<g style="fill:rgb(0%,0%,0%);fill-opacity:1;">
  <use xlink:href="#glyph0-4" x="243.738281" y="17.488281"/>
</g>
<g style="fill:rgb(0%,0%,0%);fill-opacity:1;">
  <use xlink:href="#glyph0-0" x="249.683594" y="17.488281"/>
</g>
<g style="fill:rgb(0%,0%,0%);fill-opacity:1;">
  <use xlink:href="#glyph0-5" x="254.15625" y="17.488281"/>
</g>
<g style="fill:rgb(0%,0%,0%);fill-opacity:1;">
  <use xlink:href="#glyph0-2" x="261.019531" y="17.488281"/>
</g>
<g style="fill:rgb(0%,0%,0%);fill-opacity:1;">
  <use xlink:href="#glyph0-2" x="266.558594" y="17.488281"/>
</g>
<g style="fill:rgb(0%,0%,0%);fill-opacity:1;">
  <use xlink:href="#glyph10-0" x="272.089844" y="8.853662"/>
</g>
<g style="fill:rgb(0%,0%,0%);fill-opacity:1;">
  <use xlink:href="#glyph2-6" x="277.34375" y="17.488281"/>
</g>
<g style="fill:rgb(0%,0%,0%);fill-opacity:1;">
  <use xlink:href="#glyph0-0" x="288.484375" y="17.488281"/>
</g>
<g style="fill:rgb(0%,0%,0%);fill-opacity:1;">
  <use xlink:href="#glyph0-1" x="292.832031" y="17.488281"/>
</g>
<g style="fill:rgb(0%,0%,0%);fill-opacity:1;">
  <use xlink:href="#glyph0-6" x="299.683594" y="17.488281"/>
</g>
<g style="fill:rgb(0%,0%,0%);fill-opacity:1;">
  <use xlink:href="#glyph1-0" x="305.050781" y="8.853662"/>
</g>
<g style="fill:rgb(0%,0%,0%);fill-opacity:1;">
  <use xlink:href="#glyph11-0" x="310.339844" y="8.450171"/>
</g>
<g style="fill:rgb(0%,0%,0%);fill-opacity:1;">
  <use xlink:href="#glyph4-7" x="324.332031" y="21.527344"/>
</g>
<g style="fill:rgb(0%,0%,0%);fill-opacity:1;">
  <use xlink:href="#glyph0-7" x="329.472656" y="17.488281"/>
</g>
<g style="fill:rgb(0%,0%,0%);fill-opacity:1;">
  <use xlink:href="#glyph0-3" x="336.070312" y="17.488281"/>
</g>
<g style="fill:rgb(0%,0%,0%);fill-opacity:1;">
  <use xlink:href="#glyph0-8" x="343.671875" y="17.488281"/>
</g>
<g style="fill:rgb(0%,0%,0%);fill-opacity:1;">
  <use xlink:href="#glyph1-0" x="349.039062" y="8.853662"/>
</g>
<g style="fill:rgb(0%,0%,0%);fill-opacity:1;">
  <use xlink:href="#glyph0-3" x="355.132812" y="17.488281"/>
</g>
<g style="fill:rgb(0%,0%,0%);fill-opacity:1;">
  <use xlink:href="#glyph9-0" x="360.109375" y="8.853662"/>
</g>
<g style="fill:rgb(0%,0%,0%);fill-opacity:1;">
  <use xlink:href="#glyph0-9" x="366.285156" y="17.488281"/>
</g>
<g style="fill:rgb(0%,0%,0%);fill-opacity:1;">
  <use xlink:href="#glyph10-0" x="370.769531" y="8.853662"/>
</g>
<g style="fill:rgb(0%,0%,0%);fill-opacity:1;">
  <use xlink:href="#glyph3-0" x="373.488281" y="8.853662"/>
</g>
<g style="fill:rgb(0%,0%,0%);fill-opacity:1;">
  <use xlink:href="#glyph3-0" x="377.648438" y="8.853662"/>
</g>
</g>
</svg>
